<?xml version="1.0" encoding="UTF-8"?>
<svg id="Capa_2" data-name="Capa 2" xmlns="http://www.w3.org/2000/svg" xmlns:xlink="http://www.w3.org/1999/xlink" viewBox="0 0 4000 3995">
  <defs>
    <style>
      .cls-1 {
        fill: #fff;
      }

      .cls-2 {
        fill: #ff5c64;
      }

      .cls-3 {
        opacity: .5;
      }

      .cls-4 {
        opacity: .35;
      }

      .cls-5 {
        opacity: .15;
      }

      .cls-6 {
        fill: #6b184e;
      }

      .cls-7 {
        clip-path: url(#clippath);
      }

      .cls-8 {
        fill: none;
      }

      .cls-9 {
        fill: #000072;
      }

      .cls-10 {
        fill: #8e8fb3;
      }

      .cls-11 {
        fill: #ff0068;
      }

      .cls-12 {
        fill: #f27e80;
      }

      .cls-13 {
        fill: #7cff8f;
      }

      .cls-14 {
        opacity: .25;
      }
    </style>
    <clipPath id="clippath">
      <path class="cls-8" d="m3464.75,2683.55c0,101.73-655.79,184.19-1464.75,184.19s-1464.75-82.46-1464.75-184.19-207.35-1658.26,1464.75-1658.26,1464.75,1556.53,1464.75,1658.26Z"/>
    </clipPath>
  </defs>
  <g id="Layer_1" data-name="Layer 1">
    <g>
      <rect class="cls-13" width="4000" height="3995"/>
      <g>
        <ellipse class="cls-6" cx="2000" cy="2683.55" rx="1464.75" ry="184.19"/>
        <ellipse class="cls-9" cx="2000" cy="2683.55" rx="1464.75" ry="184.19"/>
        <path class="cls-9" d="m2000,2885.66c-391.97,0-760.6-19.21-1037.97-54.09-135.49-17.04-242.07-36.94-316.78-59.15-87.27-25.94-127.91-54.18-127.91-88.86s40.65-62.92,127.91-88.86c74.71-22.21,181.29-42.11,316.78-59.15,277.37-34.88,646-54.09,1037.97-54.09s760.6,19.21,1037.96,54.09c135.49,17.04,242.07,36.94,316.78,59.15,87.27,25.94,127.91,54.18,127.91,88.86s-40.64,62.92-127.91,88.86c-74.71,22.21-181.29,42.11-316.78,59.15-277.37,34.88-645.99,54.09-1037.96,54.09Zm0-368.38c-390.52,0-757.56,19.11-1033.5,53.81-326.95,41.11-413.34,91.55-413.34,112.47s86.39,71.36,413.34,112.47c275.94,34.7,642.97,53.81,1033.5,53.81s757.56-19.11,1033.5-53.81c326.95-41.12,413.34-91.55,413.34-112.47s-86.39-71.36-413.34-112.47c-275.94-34.7-642.97-53.81-1033.5-53.81Z"/>
        <g>
          <g class="cls-7">
            <g>
              <path class="cls-10" d="m2858.36,2423.58c-39,389.44-502.21,439.09-720.59,482.48h-275.54c-141.13-28.05-384.56-58.69-549.61-182.04-39.87-29.78-75.16-64.96-103.36-106.81-20.06-29.82-36.53-63.04-48.49-100.13-8.06-25.13-14.06-52.02-17.7-80.86-1.39-10.95-2.44-22.16-3.11-33.68-2.03-33.72-.94-69.91,3.6-108.69,3.94-33.6,29.67-148.55,64.73-261.21,11.93-38.37,24.94-76.47,38.55-110.97-49.8-221.16-70.09-499.7,4.76-595.67,48.68-62.41,180.47.22,380.21,171.35,142.66-62.82,338.21-66.49,368.21-66.38,30-.11,225.55,3.56,368.17,66.38,199.74-171.13,331.53-233.76,380.21-171.35,74.86,95.97,54.57,374.51,4.76,595.67,53.56,135.88,98,327.14,103.28,372.19,5.51,46.99,5.93,90.12,1.91,129.72Z"/>
              <g class="cls-3">
                <path class="cls-1" d="m2797.34,1584.66c-2.48-88.4-17.1-162.28-48.94-203.08-48.68-62.41-180.47.23-380.21,171.35-142.63-62.82-338.17-66.49-368.17-66.38-30-.11-225.55,3.56-368.21,66.38-199.74-171.13-331.53-233.76-380.21-171.35-31.84,40.8-46.47,114.69-48.94,203.08-2.78-112.59,10.61-209.53,48.94-258.66,48.68-62.41,180.47.22,380.21,171.35,142.66-62.82,338.21-66.49,368.21-66.38,30-.11,225.55,3.56,368.17,66.38,199.74-171.13,331.53-233.76,380.21-171.35,38.33,49.13,51.72,146.08,48.94,258.66Z"/>
              </g>
              <path class="cls-1" d="m2858.36,2423.58c-39,389.44-502.21,439.09-720.59,482.48h-275.54c-141.13-28.05-384.56-58.69-549.61-182.04-39.87-29.78-75.16-64.96-103.36-106.81-20.06-29.82-36.53-63.04-48.49-100.13-8.06-25.13-14.06-52.02-17.7-80.86,337.34,289.72,580.82,159.77,689.69-61.54,42.04-85.43,124.81-93.65,160.74-93.65s118.7,8.21,160.7,93.65c110.41,224.46,359.36,354.97,704.17,48.9Z"/>
              <g class="cls-5">
                <path class="cls-9" d="m2820.22,2565.23c-123.09,261.25-493.96,303.37-682.45,340.83h-275.54c-141.13-28.05-384.56-58.69-549.61-182.04-39.87-29.78-75.16-64.96-103.36-106.81-10.91-16.24-20.78-33.45-29.44-51.79,17.81,17.7,36.94,34.05,57.12,49.13,125.66,93.91,562.67,141.09,763.03,141.09s691.62-62.29,820.26-190.41Z"/>
              </g>
              <path class="cls-9" d="m1496.54,1886.6c-10.13-15.78,56.96-156.92,183.45-115.24,45.56,15.01,49.85,59.43,14.53,68.91-33.65,9.03-48.8,1.75-100.96,20.1-29.51,10.39-86.89,42-97.02,26.22Z"/>
              <path class="cls-9" d="m2503.46,1886.6c10.13-15.78-56.96-156.92-183.45-115.24-45.56,15.01-49.85,59.43-14.53,68.91,33.65,9.03,48.8,1.75,100.96,20.1,29.51,10.39,86.89,42,97.02,26.22Z"/>
              <path class="cls-12" d="m1425.96,1664.22c-61.41,65.5-100.12,157.15-105.58,146.44-.53-1.02-1.06-2.25-1.59-3.69-11.63-30.02-30.86-149.01-30.6-255.02.08-17.1.55-32.2,1.45-45.5,2.4-35.93,7.54-58.95,13.83-73.68,7.8-18,25.28-23.5,40.74-17.42,41.11,16.21,157.85,93.22,195.84,142.53,6.78,8.77-52.63,40.84-114.09,106.34Z"/>
              <path class="cls-2" d="m1425.96,1664.22c-61.41,65.5-100.12,157.15-105.58,146.44-.53-1.02-1.06-2.25-1.59-3.69,13.74-55.61,51.5-132.42,80.43-187.95,39.55-75.83-14.67-136.24-61.75-154.35-16.15-6.23-35.36,20.3-47.83,41.78,2.4-35.93,7.54-58.95,13.83-73.68,7.8-18,25.28-23.5,40.74-17.42,41.11,16.21,157.85,93.22,195.84,142.53,6.78,8.77-52.63,40.84-114.09,106.34Z"/>
              <path class="cls-9" d="m1321.85,1831.86c-.34,0-.69,0-1.04-.02-7.83-.27-14.94-4.85-18.56-11.95-13.79-27.04-34.68-157.86-34.38-267.98h0c.16-59.38,5.7-100.97,16.92-127.15,11.7-27.08,39.81-38.96,66.86-28.32,43.49,17.1,163.03,95.16,204.54,149.01,4.98,6.47,10.61,19.95-7.7,37.58-5.82,5.6-14.17,12.26-24.74,20.69-21.96,17.51-52.04,41.48-82.93,74.43-33.96,36.22-61.08,81.44-79.02,111.36-18.78,31.32-25.39,42.35-39.95,42.35Zm16.64-30.45h.05-.05Zm-29.95-249.39c-.21,79.3,10.81,165.12,20.36,213.23,18.83-31.37,46.58-76.92,82.24-114.94,32.91-35.09,65.61-61.16,87.25-78.41,5.45-4.35,11.3-9.01,15.91-12.88-43.32-46.29-143.48-111.32-177.54-124.72-3.76-1.48-10.65-2.6-14.6,6.55-6.1,14.22-13.43,45.1-13.61,111.17h0Z"/>
              <path class="cls-12" d="m2576.17,1664.22c61.41,65.5,100.12,157.15,105.58,146.44.53-1.02,1.06-2.25,1.59-3.69,11.63-30.02,30.86-149.01,30.6-255.02-.08-17.1-.55-32.2-1.45-45.5-2.4-35.93-7.54-58.95-13.83-73.68-7.8-18-25.28-23.5-40.74-17.42-41.11,16.21-157.85,93.22-195.84,142.53-6.78,8.77,52.63,40.84,114.09,106.34Z"/>
              <path class="cls-2" d="m2576.17,1664.22c61.41,65.5,100.12,157.15,105.58,146.44.53-1.02,1.06-2.25,1.59-3.69-13.75-55.61-51.5-132.42-80.43-187.95-39.55-75.83,14.67-136.24,61.75-154.35,16.15-6.23,35.36,20.3,47.83,41.78-2.4-35.93-7.54-58.95-13.83-73.68-7.8-18-25.28-23.5-40.74-17.42-41.11,16.21-157.85,93.22-195.84,142.53-6.78,8.77,52.63,40.84,114.09,106.34Z"/>
              <path class="cls-9" d="m2680.28,1831.86c-14.56,0-21.17-11.03-39.95-42.35-17.94-29.92-45.06-75.15-79.02-111.36-30.89-32.94-60.97-56.92-82.93-74.43-10.57-8.43-18.92-15.08-24.74-20.69-18.31-17.64-12.68-31.12-7.7-37.58,41.51-53.85,161.06-131.91,204.55-149.01,27.03-10.64,55.15,1.25,66.83,28.27,11.25,26.23,16.78,67.82,16.95,127.2h0c.3,110.11-20.59,240.93-34.38,267.98-3.62,7.1-10.73,11.68-18.56,11.95-.35.01-.7.02-1.04.02Zm-192.45-272.84c4.61,3.88,10.46,8.54,15.91,12.88,21.64,17.25,54.34,43.32,87.25,78.41,35.65,38.02,63.41,83.57,82.23,114.94,9.55-48.12,20.57-133.94,20.36-213.23h0c-.18-66.07-7.51-96.95-13.63-111.22-3.93-9.09-10.82-7.97-14.58-6.5-34.06,13.39-134.22,78.43-177.54,124.72Z"/>
              <path class="cls-9" d="m2136.07,2897.52c59.06-15.96,118.54-27.69,177.17-41.82,58.65-13.92,116.86-28.89,173.23-48.71,14.03-5.07,28.09-10.09,41.81-15.86,13.92-5.34,27.33-11.71,40.91-17.75,6.76-3.07,13.27-6.59,19.92-9.86,6.62-3.33,13.29-6.57,19.64-10.34l19.3-10.9c6.32-3.8,12.45-7.88,18.68-11.8l9.32-5.93c3.03-2.08,5.96-4.29,8.95-6.42l17.84-12.92,16.93-13.98c2.79-2.37,5.73-4.57,8.39-7.06l7.93-7.54c21.73-19.56,40.25-42.16,57.08-65.74l11.82-18.25c.97-1.53,2.01-3.02,2.93-4.57l2.54-4.8,5.1-9.6,5.11-9.59c.84-1.61,1.74-3.18,2.52-4.81l2.11-5.01,8.49-20.02,2.13-5,1.7-5.17,3.35-10.36c2.11-6.95,4.77-13.72,6.46-20.8l4.9-21.28,2.47-10.64,1.55-10.85,3.13-21.69c.24-1.81.57-3.61.75-5.43l.34-5.49.68-10.98,1.39-21.95c.05-7.35-.17-14.72-.23-22.07l-.33-22.08-1.88-22.08-1.86-22.08-1.51-10.46-1.91-10.84c-5.53-29.17-12.35-58.64-19.5-87.88-7.22-29.26-14.88-58.45-23.14-87.44-16.45-57.99-34.72-115.5-56.47-171.17l-2.09-5.35,1.25-5.6c18.89-84.9,32.48-171.19,39.43-257.73,3.33-43.26,5.07-86.61,3.83-129.64-1.23-42.94-5.19-85.92-15.55-126.2-5.17-20.07-12.45-39.27-22.37-55.65-1.15-2.15-2.55-3.99-3.91-5.89l-2.02-2.86c-.67-.98-1.35-1.96-1.98-2.56-1.3-1.37-2.41-2.99-3.88-4.09l-2.04-1.86c-.71-.57-1.5-1.02-2.24-1.56-5.94-4.11-13.17-6.63-21.63-7.43-8.42-.83-17.75-.04-27.22,1.85-9.48,1.91-19.13,4.63-28.72,8.16-19.21,6.98-38.18,16.38-56.74,26.66-37.14,20.77-72.71,45.56-107.39,71.53-34.65,26.09-68.33,53.73-101.45,82.09l-9.36,8.02-11.5-4.93c-27.69-11.88-56.6-21.49-86.08-29.52-29.51-8.01-59.71-13.97-90.07-19.05-30.39-5.01-61.06-8.73-91.84-11.35-30.72-2.62-61.8-4.26-92.22-4.41-30.42.24-61.5,1.82-92.22,4.47-30.78,2.62-61.45,6.35-91.84,11.37-30.36,5.08-60.56,11.05-90.06,19.06-29.47,8.03-58.38,17.65-86.06,29.53l-11.56,4.96-9.42-8.06c-33.12-28.36-66.81-55.99-101.46-82.07-34.68-25.96-70.25-50.74-107.38-71.5-18.55-10.28-37.51-19.67-56.72-26.64-9.59-3.52-19.23-6.24-28.7-8.15-9.46-1.89-18.78-2.67-27.17-1.84-8.43.8-15.63,3.31-21.54,7.4-.73.53-1.51.98-2.22,1.55l-2.03,1.85c-1.46,1.09-2.57,2.71-3.86,4.07-.63.6-1.3,1.57-1.97,2.55l-2.02,2.86c-1.35,1.9-2.76,3.74-3.9,5.89-9.89,16.36-17.17,35.54-22.33,55.6-10.35,40.26-14.31,83.22-15.52,126.15-1.23,43.02.52,86.36,3.85,129.61,6.97,86.52,20.58,172.8,39.47,257.68l1.27,5.71-2.13,5.42c-21.85,55.6-39.97,113.19-56.46,171.15-8.21,29.01-15.9,58.18-23.1,87.45-7.16,29.23-13.99,58.71-19.46,87.86-1.39,7.3-2.55,14.47-3.43,21.28-.86,7.35-1.6,14.7-2.23,22.06-1.25,14.72-2.01,29.45-2.2,44.16-.39,29.41,1.49,58.76,6.14,87.56,9.16,57.59,30.23,112.93,63.31,160.55,32.87,47.81,76.9,87.65,126.33,119.5,49.55,31.87,104.1,56.33,160.32,76.21,56.28,19.98,114.54,34.76,173.26,48.26l22.01,5.19,22.11,4.96,44.25,10.2c29.56,6.86,59.18,13.93,88.59,22.49,4.64,1.35,7.31,6.2,5.96,10.84-1.2,4.13-5.18,6.7-9.31,6.26h-.04c-60.33-6.36-120.76-14.31-180.83-26.22-60.03-11.88-119.63-27.56-177.93-47.99-58.22-20.49-115.34-45.88-168.11-79.68-52.61-33.77-100.61-76.79-136.77-129.19-36.42-52.17-59.67-113.18-69.65-175.45-5.09-31.16-7.14-62.65-6.78-93.95.18-15.66.96-31.27,2.25-46.82.65-7.77,1.42-15.53,2.31-23.26,1.04-8.25,2.32-16.07,3.75-23.69,5.69-30.55,12.53-60.28,19.76-90.04,7.26-29.72,15-59.3,23.28-88.74,16.64-58.87,34.89-117.35,57.37-174.86l-.86,11.13c-19.43-86.6-33.44-174.31-40.74-262.95-3.5-44.34-5.4-88.91-4.19-133.74,1.24-44.79,5.11-89.96,16.54-134.93,5.79-22.43,13.92-44.91,26.74-66.2,1.47-2.69,3.35-5.27,5.17-7.85l2.74-3.87c.9-1.28,1.79-2.56,3.06-3.96,2.39-2.7,4.6-5.51,7.44-7.88l4.1-3.65c1.43-1.15,2.97-2.17,4.47-3.24,12.13-8.49,26.52-12.97,39.93-14.21,13.51-1.32,26.31-.05,38.37,2.29,12.06,2.39,23.61,5.7,34.65,9.72,22.12,8,42.66,18.21,62.53,29.16,39.63,22.08,76.34,47.64,112.03,74.23,35.6,26.7,69.93,54.77,103.6,83.49l-20.98-3.1c29.97-12.94,60.69-23.19,91.72-31.7,31.04-8.48,62.45-14.75,93.94-20.07,31.5-5.25,63.14-9.15,94.86-11.91,31.78-2.75,63.39-4.56,95.7-4.7,32.31.23,63.92,1.99,95.7,4.76,31.72,2.77,63.36,6.67,94.86,11.93,31.48,5.33,62.89,11.6,93.93,20.09,31.02,8.52,61.74,18.77,91.7,31.71l-20.86,3.09c33.68-28.72,68.01-56.77,103.61-83.47,35.69-26.59,72.4-52.13,112.02-74.2,19.87-10.95,40.4-21.14,62.51-29.14,11.03-4.02,22.58-7.32,34.63-9.71,12.05-2.34,24.84-3.6,38.32-2.28,13.38,1.24,27.73,5.71,39.84,14.18,1.49,1.07,3.04,2.08,4.46,3.23l4.09,3.64c2.83,2.37,5.03,5.17,7.42,7.87,1.27,1.39,2.16,2.67,3.06,3.95l2.74,3.86c1.82,2.58,3.69,5.15,5.16,7.84,12.8,21.27,20.92,43.74,26.7,66.15,11.42,44.95,15.28,90.1,16.51,134.89,1.19,44.82-.71,89.38-4.22,133.71-7.32,88.63-21.34,176.33-40.79,262.91l-.85-10.95c22.34,57.53,40.73,115.96,57.3,174.84,8.31,29.43,16.01,59.01,23.27,88.73,7.21,29.76,14.05,59.5,19.76,90.01l2.01,11.59,1.71,12.08,1.93,23.31,1.91,23.31.32,23.46c.05,7.82.25,15.64.17,23.47l-1.51,23.51-.77,11.75-.39,5.88c-.2,1.95-.54,3.9-.8,5.85l-3.41,23.39-1.72,11.69-2.68,11.55-5.39,23.09c-1.87,7.68-4.74,15.11-7.07,22.67l-3.7,11.29-1.88,5.63-2.33,5.48-9.34,21.89-2.34,5.47c-.86,1.79-1.84,3.51-2.76,5.27l-5.61,10.51-5.62,10.5-2.81,5.25c-1.02,1.7-2.14,3.34-3.21,5.01l-12.99,19.95c-18.41,25.76-38.76,50.32-62.23,71.41l-8.6,8.12c-2.89,2.68-6.03,5.05-9.03,7.59l-18.23,14.97-19.07,13.77c-3.19,2.27-6.34,4.62-9.57,6.82l-9.9,6.29c-6.62,4.15-13.16,8.46-19.85,12.47l-20.38,11.47c-6.73,3.96-13.72,7.35-20.68,10.83-6.98,3.42-13.85,7.1-20.92,10.29-14.17,6.29-28.23,12.9-42.68,18.42-14.3,5.97-28.85,11.14-43.38,16.35-29.19,10-58.58,19.33-88.34,26.93-14.83,4.06-29.78,7.45-44.68,11.1-14.97,3.22-29.95,6.51-44.97,9.36-60.06,11.72-120.45,19.88-180.6,27.2h-.06c-4.79.59-9.14-2.82-9.73-7.61-.53-4.37,2.26-8.38,6.39-9.49Z"/>
              <g class="cls-5">
                <path class="cls-9" d="m2149.32,2436.48s.04,91.02-81.38,86.22c-57.68-3.38-69.64-50.85-70.51-54.68-.9,3.83-12.86,51.31-70.54,54.68-81.46,4.8-81.42-86.22-81.42-86.22l151.25-117.95h1.39l151.21,117.95Z"/>
              </g>
              <path class="cls-1" d="m2148.5,2437.09s-26.56,69.25-88.38,53.13c-70.37-18.35-61.74-102.3-61.74-102.3h-2.6s8.29,83.97-62.15,102.04c-61.88,15.88-88.16-53.48-88.16-53.48,0,0-17.34-155.48,151.23-155.48s151.81,156.08,151.81,156.08Z"/>
              <g class="cls-5">
                <path class="cls-9" d="m2140.56,2452.54c-11.95,19.38-37.83,48.8-80.41,37.67-70.42-18.34-61.79-102.3-61.79-102.3h-2.57s8.3,84.01-62.17,102.08c-42.58,10.92-68.34-18.56-80.24-37.99,11.9,1.09,24.84.16,38.92-3.44,116.33-29.86,102.62-143.84,102.62-143.84h4.31s-14.25,113.92,101.97,144.27c14.25,3.71,27.35,4.69,39.36,3.55Z"/>
              </g>
              <path class="cls-9" d="m1854.98,2432.88c2.1,3.41,4.78,7.64,7.5,11.21,2.65,3.75,5.63,7.2,8.6,10.53,6.04,6.56,12.71,12.1,19.77,15.82,7.02,3.88,14.4,5.76,21.99,6.35,3.89-.33,7.71.11,11.7-1.02,1.97-.47,3.97-.6,5.95-1.16l5.94-1.96c15.89-5.19,27.92-16.33,36.1-31.47,4.11-7.53,7.07-16.1,9.2-25.02,1.15-4.45,1.89-9.04,2.59-13.65.63-4.51,1.16-9.55,1.34-13.6l.03-.78c.24-5.62,5-9.97,10.61-9.73,4.89.21,8.83,3.85,9.6,8.5,1.01,6.06,1.39,11.2,1.5,16.82.15,5.51-.14,11.04-.74,16.58-1.28,11.04-3.63,22.3-8.49,33.01-8.8,21.56-28.24,40.99-51.13,48.51l-8.49,2.88c-2.87.86-5.97,1.25-8.96,1.8-5.92,1.37-12.37,1.01-18.58,1.1-12.7-.95-25.06-5.43-35.39-12.07-10.33-6.75-18.61-15.44-25.06-24.84-3.19-4.73-6.04-9.61-8.47-14.65-2.49-5.13-4.38-10-6.14-15.97-1.58-5.39,1.51-11.04,6.89-12.62,4.49-1.32,9.17.61,11.52,4.41l.61,1Z"/>
              <path class="cls-9" d="m2158,2440.73c-1.78,5.97-3.69,10.83-6.2,15.95-2.45,5.03-5.31,9.9-8.53,14.61-6.49,9.37-14.8,18.03-25.16,24.74-10.35,6.6-22.74,11.03-35.44,11.93-6.22-.11-12.67.22-18.58-1.17-2.99-.56-6.08-.97-8.95-1.84l-8.48-2.91c-22.86-7.61-42.22-27.12-50.94-48.71-4.81-10.73-7.12-22-8.36-33.05-.58-5.55-.84-11.07-.67-16.59.13-5.62.54-10.75,1.57-16.81.94-5.54,6.2-9.27,11.74-8.33,4.83.82,8.28,4.92,8.47,9.63l.03.78c.16,4.06.67,9.1,1.28,13.61.69,4.62,1.4,9.21,2.54,13.66,2.09,8.92,5.02,17.51,9.1,25.05,8.13,15.18,20.11,26.36,35.98,31.62l5.93,1.98c1.98.57,3.98.71,5.95,1.18,3.99,1.15,7.8.72,11.69,1.06,7.59-.56,14.97-2.41,22.01-6.26,7.08-3.7,13.77-9.21,19.84-15.74,2.98-3.32,5.98-6.76,8.64-10.5,2.74-3.56,5.43-7.78,7.54-11.18l.61-.99c2.96-4.77,9.23-6.23,14-3.27,3.98,2.47,5.65,7.25,4.38,11.54Z"/>
              <g>
                <path class="cls-9" d="m2081.98,2344.08c-.04,19.86-25.98,37.35-49.79,49.23-24.9,12.42-52.77,12.37-77.62-.15-23.76-11.97-49.63-29.56-49.59-49.43.12-59.91,177.12-59.55,177,.35Z"/>
                <g class="cls-3">
                  <path class="cls-1" d="m2028.59,2332.23c-.01,5.73-10.29,10.76-19.73,14.18-9.87,3.58-20.92,3.55-30.78-.06-9.42-3.46-19.68-8.54-19.67-14.26.03-17.27,70.22-17.13,70.18.14Z"/>
                </g>
              </g>
              <path class="cls-9" d="m1246.3,2393.76c-3.37-1.94-7.27-4.01-11.03-5.94-3.74-2.03-7.6-3.91-11.48-5.75-3.84-1.91-7.73-3.71-11.71-5.38-3.97-1.66-7.81-3.58-11.8-5.19-15.93-6.51-31.96-12.78-48.39-17.94-32.77-10.47-66.2-19.08-100.29-24.28-4.23-.86-8.51-1.3-12.8-1.79l-12.83-1.57-12.84-1.6c-4.28-.5-8.6-.6-12.9-.92-8.61-.53-17.22-1.08-25.84-1.75l-25.92-.3c-17.32-.77-34.55,1.3-51.9,1.74l-6.5.28-6.46.72-12.94,1.43-25.96,2.68-.6.06c-4.91.51-9.31-3.06-9.82-7.98-.48-4.67,2.75-8.88,7.29-9.72l26.36-4.81,13.22-2.32,6.62-1.16,6.67-.72c8.9-1,17.82-1.87,26.75-2.69,4.47-.35,8.92-1.01,13.41-1.1l13.45-.4c8.97-.24,17.95-.59,26.93-.72l26.95,1.04c4.49.25,8.99.28,13.47.7l13.42,1.4c8.94,1.04,17.94,1.63,26.81,3.21l26.63,4.54c8.84,1.7,17.59,3.92,26.36,5.95,8.82,1.86,17.39,4.75,26.06,7.18,8.68,2.43,17.16,5.54,25.64,8.6,33.94,12.49,66.37,27.9,96.29,49.86,3.98,2.92,4.84,8.52,1.92,12.5-2.72,3.71-7.77,4.71-11.67,2.47l-.56-.32Z"/>
              <path class="cls-9" d="m1269.1,2528.22c-14.69-1.76-30.18-2.96-45.32-3.59-15.23-.65-30.45-.88-45.64-.55-30.36.76-60.65,3.22-90.27,9-14.81,2.85-29.48,6.34-43.82,10.85-7.23,2.09-14.24,4.78-21.36,7.18-6.94,2.83-14.03,5.38-20.78,8.64-27.5,12.09-53.02,28.28-76.36,47.5l-.14.11c-3.82,3.15-9.47,2.6-12.61-1.22-2.95-3.59-2.62-8.81.58-12.04,22.7-22.67,49.19-41.93,78.13-56.22,14.42-7.23,29.33-13.51,44.64-18.48,15.26-5.14,30.81-9.37,46.57-12.42,31.46-6.4,63.51-9.25,95.39-8.63,31.98.66,63.43,4.14,94.82,12.37,4.78,1.26,7.65,6.15,6.39,10.94-1.15,4.38-5.35,7.15-9.73,6.62l-.48-.06Z"/>
              <path class="cls-9" d="m2743.39,2379.11c29.92-21.95,62.35-37.36,96.29-49.86,8.48-3.06,16.96-6.17,25.64-8.6,8.67-2.43,17.24-5.32,26.06-7.18,8.77-2.04,17.52-4.25,26.36-5.95l26.63-4.54c8.87-1.58,17.87-2.18,26.81-3.21l13.42-1.4c4.48-.42,8.98-.46,13.47-.7l26.95-1.04c8.98.13,17.96.49,26.93.72l13.45.4c4.48.08,8.94.75,13.41,1.1,8.93.82,17.85,1.69,26.75,2.69l6.67.72,6.62,1.16,13.22,2.32,26.36,4.81c4.86.89,8.08,5.55,7.19,10.41-.84,4.62-5.09,7.76-9.69,7.3l-.64-.07-25.96-2.68-12.94-1.43-6.46-.72-6.5-.28c-17.35-.44-34.58-2.5-51.9-1.74l-25.92.3c-8.62.66-17.23,1.22-25.84,1.75-4.3.32-8.62.43-12.9.92l-12.84,1.6-12.83,1.57c-4.28.5-8.57.94-12.8,1.79-34.09,5.2-67.52,13.81-100.29,24.28-16.43,5.16-32.46,11.44-48.39,17.94-4,1.61-7.83,3.53-11.8,5.19-3.98,1.67-7.87,3.47-11.71,5.38-3.88,1.84-7.74,3.72-11.48,5.75-3.76,1.93-7.66,4.01-11.03,5.94l-.56.32c-4.28,2.46-9.75.98-12.21-3.3-2.29-3.99-1.17-9.01,2.46-11.67Z"/>
              <path class="cls-9" d="m2727.08,2510.72c31.39-8.24,62.84-11.72,94.82-12.37,31.88-.62,63.94,2.24,95.39,8.63,15.76,3.05,31.31,7.28,46.57,12.42,15.31,4.97,30.22,11.26,44.64,18.48,28.94,14.29,55.43,33.54,78.13,56.22,3.5,3.5,3.51,9.17,0,12.67-3.28,3.29-8.48,3.49-12.01.61l-.17-.14c-23.33-19.22-48.86-35.41-76.36-47.5-6.75-3.26-13.84-5.81-20.78-8.64-7.12-2.41-14.13-5.09-21.36-7.18-14.34-4.51-29.01-8-43.82-10.85-29.62-5.78-59.91-8.24-90.27-9-15.19-.33-30.41-.09-45.64.55-15.15.64-30.64,1.83-45.32,3.59l-.48.06c-4.91.59-9.37-2.91-9.96-7.83-.54-4.5,2.36-8.62,6.62-9.73Z"/>
            </g>
          </g>
          <path class="cls-9" d="m2000,2885.66c-391.97,0-760.6-19.21-1037.97-54.09-135.49-17.04-242.07-36.94-316.78-59.15-87.27-25.94-127.91-54.18-127.91-88.86,0-9.89,8.02-17.91,17.91-17.91s17.91,8.02,17.91,17.91c0,20.92,86.39,71.36,413.34,112.47,275.94,34.7,642.97,53.81,1033.5,53.81s757.56-19.11,1033.5-53.81c326.95-41.11,413.34-91.55,413.34-112.47,0-9.89,8.02-17.91,17.91-17.91s17.91,8.02,17.91,17.91c0,34.68-40.64,62.92-127.91,88.86-74.71,22.21-181.29,42.11-316.78,59.15-277.37,34.88-645.99,54.09-1037.96,54.09Z"/>
          <g>
            <path class="cls-1" d="m1557.14,2846.67c-4.72,39.56-37.24,79.64-153.12,72.08-79.61,26.9-147.18,18.9-211.58-17.53-50.34-1.55-81.56-29.67-80.27-62.48.44-10.7,2.07-20.7,4.8-30,34.8-119.61,247.12-124.37,339.76-90.72,37.27,13.54,60.71,35.5,75.47,57.46,23.84,35.58,24.95,71.19,24.95,71.19Z"/>
            <g class="cls-5">
              <path class="cls-9" d="m1557.14,2846.67c-4.72,39.56-37.24,79.64-153.12,72.08-79.61,26.9-147.18,18.9-211.58-17.53-50.34-1.55-81.56-29.67-80.27-62.48.44-10.7,2.07-20.7,4.8-30,18.05,8.23,51.15,15.06,78.39-25.5,5.35,103.71,194.86,126.51,232.25,10.59,0,0,120.24,110.72,104.59-18.23v-.11c23.84,35.58,24.95,71.19,24.95,71.19Z"/>
            </g>
            <path class="cls-9" d="m1313.9,2952.5c-43.71,0-85.6-11.17-126.48-33.59-30.86-1.84-57.04-12.78-74.08-31.06-13.02-13.97-19.79-31.67-19.07-49.83,1.82-45.92,24-84.43,64.15-111.38,85.82-57.61,231.94-51.79,304.43-25.44,107.69,39.16,112.07,140.6,112.2,144.9l.04,1.35-.16,1.34c-5.33,44.45-38.98,95.56-168.56,88.05-31.85,10.43-62.58,15.65-92.47,15.65Zm21.66-234.76c-55.8,0-115.53,10.68-157.18,38.64-30.69,20.61-46.95,48.55-48.32,83.06-.34,8.67,2.93,16.96,9.48,23.99,11.12,11.93,30.61,19.18,53.45,19.88l4.42.13,3.85,2.18c62.45,35.36,125.04,40.5,197,16.16l3.36-1.14,3.54.23c82.95,5.42,127.99-13.05,133.99-54.89-.79-10.9-9.02-82.21-88.56-111.13-28.3-10.29-70.41-17.12-115.04-17.12Z"/>
            <path class="cls-9" d="m1203.16,2787.59c-3.74,8.59-6.89,18.42-9.13,27.82-2.18,9.51-3.76,19.1-3.8,28.37-.08,9.26,1.06,18.15,3.57,26.06,2.82,7.79,7.12,14.29,12.31,19.78l.31.33c6.82,7.21,6.5,18.58-.71,25.4-7.21,6.82-18.58,6.5-25.4-.71-.53-.56-1.08-1.23-1.52-1.84-7.81-10.83-13.08-23.15-15.46-35.59-2.05-12.45-1.62-24.56.15-36.02,1.77-11.49,5.21-22.25,9.21-32.58,4.16-10.39,8.77-19.98,14.83-29.76,2.6-4.21,8.13-5.5,12.33-2.9,3.83,2.37,5.25,7.17,3.5,11.19l-.2.45Z"/>
            <path class="cls-9" d="m1436.17,2791.25c4,11.61,6.63,22.73,8.55,34.55,1.81,11.72,2.78,23.76,2.08,36.12-.64,12.33-2.97,25.05-7.96,37.47-2.57,6.18-5.82,12.22-9.76,17.93-4.03,5.67-8.79,10.87-14.04,15.57-7.39,6.61-18.74,5.98-25.35-1.41-6.61-7.39-5.98-18.74,1.41-25.35.57-.51,1.17-.98,1.78-1.4l.12-.08c3.45-2.35,6.74-5,9.7-8.1,2.89-3.17,5.52-6.71,7.84-10.61,4.52-7.89,7.73-17.17,9.58-27.08,1.93-9.9,2.53-20.38,2.32-30.95-.25-10.47-1.41-21.52-3.41-31.48l-.1-.48c-.97-4.85,2.17-9.57,7.02-10.54,4.45-.89,8.79,1.68,10.23,5.86Z"/>
          </g>
          <g>
            <path class="cls-1" d="m2442.3,2846.67c4.72,39.56,37.24,79.64,153.12,72.08,79.61,26.9,147.18,18.9,211.58-17.53,50.34-1.55,81.56-29.67,80.27-62.48-.44-10.7-2.07-20.7-4.8-30-34.8-119.61-247.12-124.37-339.76-90.72-37.27,13.54-60.71,35.5-75.47,57.46-23.84,35.58-24.95,71.19-24.95,71.19Z"/>
            <g class="cls-5">
              <path class="cls-9" d="m2442.3,2846.67c4.72,39.56,37.24,79.64,153.12,72.08,79.61,26.9,147.18,18.9,211.58-17.53,50.34-1.55,81.56-29.67,80.27-62.48-.44-10.7-2.07-20.7-4.8-30-18.05,8.23-51.15,15.06-78.39-25.5-5.35,103.71-194.86,126.51-232.25,10.59,0,0-120.24,110.72-104.59-18.23v-.11c-23.84,35.58-24.95,71.19-24.95,71.19Z"/>
            </g>
            <path class="cls-9" d="m2685.54,2952.5c-29.9,0-60.62-5.22-92.47-15.65-129.57,7.52-163.23-43.61-168.56-88.05l-.16-1.34.04-1.35c.13-4.3,4.51-105.74,112.21-144.9,72.48-26.36,218.6-32.18,304.43,25.44,40.14,26.95,62.32,65.46,64.15,111.38.72,18.17-6.05,35.86-19.07,49.83-17.04,18.28-43.22,29.22-74.08,31.06-40.87,22.41-82.77,33.59-126.48,33.59Zm-87.74-51.85l3.36,1.14c71.96,24.33,134.56,19.19,197-16.16l3.85-2.18,4.43-.13c22.85-.7,42.33-7.95,53.45-19.88,6.55-7.02,9.82-15.32,9.48-23.99-1.37-34.51-17.63-62.45-48.32-83.06-74.97-50.32-208.54-44.67-272.22-21.51-79.55,28.92-87.77,100.23-88.57,111.13,6,41.84,51.06,60.3,133.99,54.89l3.54-.23Z"/>
            <path class="cls-9" d="m2811.91,2778.84c6.06,9.78,10.66,19.37,14.83,29.76,4,10.34,7.44,21.09,9.21,32.58,1.78,11.46,2.2,23.57.15,36.02-2.38,12.44-7.65,24.75-15.46,35.59-5.8,8.05-17.03,9.87-25.08,4.08-8.05-5.8-9.87-17.03-4.08-25.08.45-.63.94-1.22,1.45-1.77l.38-.4c5.19-5.49,9.49-11.99,12.31-19.78,2.51-7.91,3.65-16.8,3.57-26.06-.04-9.28-1.62-18.87-3.8-28.37-2.24-9.41-5.39-19.23-9.13-27.82l-.2-.45c-1.97-4.54.1-9.81,4.64-11.79,4.14-1.8,8.89-.23,11.19,3.5Z"/>
            <path class="cls-9" d="m2580.42,2796.42c-2,9.97-3.16,21.01-3.41,31.48-.21,10.56.39,21.05,2.32,30.95,1.85,9.91,5.06,19.19,9.58,27.08,2.32,3.9,4.95,7.44,7.84,10.61,2.96,3.1,6.24,5.75,9.7,8.1l.03.02c8.2,5.58,10.32,16.75,4.74,24.94-5.58,8.2-16.75,10.32-24.94,4.74-.63-.43-1.31-.97-1.87-1.46-5.25-4.7-10.02-9.9-14.04-15.57-3.94-5.71-7.19-11.75-9.76-17.93-4.99-12.42-7.32-25.14-7.96-37.47-.7-12.36.27-24.4,2.08-36.12,1.92-11.81,4.55-22.93,8.55-34.55,1.61-4.68,6.71-7.16,11.38-5.55,4.29,1.48,6.74,5.9,5.86,10.23l-.1.49Z"/>
          </g>
          <g>
            <ellipse class="cls-9" cx="1648.58" cy="2234.36" rx="164.97" ry="121.62" transform="translate(-700.56 3714.81) rotate(-85.8)"/>
            <ellipse class="cls-1" cx="1692.35" cy="2206.52" rx="65.51" ry="40.89" transform="translate(-632.23 3732.67) rotate(-85.8)"/>
            <g class="cls-4">
              <ellipse class="cls-1" cx="1595.06" cy="2298.58" rx="20.4" ry="41.85" transform="translate(-705.71 706.69) rotate(-20.56)"/>
            </g>
          </g>
          <g>
            <ellipse class="cls-9" cx="2341.27" cy="2234.36" rx="121.62" ry="164.97" transform="translate(-157.4 177.53) rotate(-4.2)"/>
            <ellipse class="cls-1" cx="2297.49" cy="2206.52" rx="40.89" ry="65.51" transform="translate(-155.48 174.25) rotate(-4.2)"/>
            <g class="cls-4">
              <ellipse class="cls-1" cx="2394.79" cy="2298.58" rx="41.85" ry="20.4" transform="translate(-598.47 3733.46) rotate(-69.44)"/>
            </g>
          </g>
        </g>
      </g>
      <g>
        <path class="cls-1" d="m3019.72,1416.49c-21.81-38.12-31.8-83.4-25.62-130.3,15.02-113.83,119.47-193.94,233.3-178.93,113.83,15.02,193.94,119.47,178.93,233.3-15.02,113.83-119.47,193.94-233.3,178.93-31.66-4.18-60.7-15.29-85.83-31.58l-96.79,18.79,29.31-90.21Z"/>
        <g class="cls-3">
          <path class="cls-1" d="m3222.18,1146.9c-106.34-14.03-204.46,54.96-229.17,156.9.19-7.33.71-14.71,1.69-22.14,15.02-113.83,119.47-193.94,233.3-178.93,113.83,15.02,193.94,119.47,178.93,233.3-.98,7.46-2.37,14.77-4.1,21.93,2.62-104.9-74.28-197.03-180.65-211.06Z"/>
        </g>
        <path class="cls-9" d="m3200.38,1536.96c-9.71,0-19.52-.63-29.4-1.94-31.12-4.1-60.31-14.38-86.87-30.55l-90.71,17.61c-5.46,1.05-11.05-.85-14.73-5-3.68-4.16-4.88-9.95-3.16-15.23l27.21-83.75c-21.95-41.24-30.3-87.4-24.16-133.97,7.81-59.21,38.21-111.83,85.6-148.17,47.39-36.34,106.07-52.07,165.3-44.24,122.22,16.12,208.54,128.67,192.42,250.89-14.82,112.34-111.12,194.34-221.5,194.35Zm-113.17-64.74c3.01,0,5.97.87,8.53,2.52,24.05,15.6,50.75,25.42,79.35,29.19,105.07,13.83,201.85-60.35,215.71-165.44,13.86-105.08-60.35-201.85-165.43-215.71-50.88-6.71-101.38,6.79-142.12,38.04-40.75,31.25-66.88,76.49-73.59,127.4-5.55,42.05,2.64,83.7,23.68,120.47,2.2,3.84,2.67,8.43,1.3,12.63l-21.09,64.91,70.67-13.72c.99-.19,1.99-.29,2.99-.29Z"/>
        <g class="cls-14">
          <path class="cls-9" d="m3018.61,1414.46c55.53,49.79,133.34,73.13,211.77,56,86.98-19,152.51-82.93,177.69-162.08.24,10.6-.31,21.35-1.74,32.19-15.02,113.83-119.47,193.94-233.3,178.93-31.66-4.18-60.7-15.29-85.83-31.58l-96.79,18.79,29.31-90.21c-.38-.67-.73-1.36-1.11-2.03Z"/>
        </g>
        <path class="cls-11" d="m3133.64,1254.98h0c17.99-17.99,47.16-14.77,65.15,3.22l2.8,2.8,2.8-2.8c17.99-17.99,47.16-21.22,65.15-3.22h0c17.99,17.99,17.99,47.16,0,65.15l-2.8,2.8-56.57,56.57c-4.74,4.74-12.43,4.74-17.18,0l-56.57-56.57-2.8-2.8c-17.99-17.99-17.99-47.16,0-65.15Z"/>
      </g>
    </g>
  </g>
</svg>