<?xml version="1.0" encoding="UTF-8" standalone="no"?>
<!-- Created with Inkscape (http://www.inkscape.org/) -->

<svg
   version="1.1"
   id="svg2"
   width="5333.3335"
   height="5333.3335"
   viewBox="0 0 5333.3335 5333.3335"
   sodipodi:docname="9500_1_2_10.eps"
   xmlns:inkscape="http://www.inkscape.org/namespaces/inkscape"
   xmlns:sodipodi="http://sodipodi.sourceforge.net/DTD/sodipodi-0.dtd"
   xmlns="http://www.w3.org/2000/svg"
   xmlns:svg="http://www.w3.org/2000/svg">
  <defs
     id="defs6" />
  <sodipodi:namedview
     id="namedview4"
     pagecolor="#ffffff"
     bordercolor="#000000"
     borderopacity="0.25"
     inkscape:showpageshadow="2"
     inkscape:pageopacity="0.0"
     inkscape:pagecheckerboard="0"
     inkscape:deskcolor="#d1d1d1" />
  <g
     id="g8"
     inkscape:groupmode="layer"
     inkscape:label="ink_ext_XXXXXX"
     transform="matrix(1.3333333,0,0,-1.3333333,0,5333.3333)">
    <g
       id="g10"
       transform="scale(0.1)">
      <path
         d="M 0,0 H 40000 V 40000 H 0 Z"
         style="fill:#d3fff4;fill-opacity:1;fill-rule:nonzero;stroke:none"
         id="path12" />
      <path
         d="m 19983,4050 c -3810,0 -6898.6,340.3 -6898.6,760.3 0,166.4 484.9,320.3 1307.5,445.4 291.5,-632.2 1136.1,-808.5 1626.7,-808.5 12.1,0 23.9,0.1 35.4,0.3 h 1135.2 c 671.3,0 1277.3,423 1507.9,1052.7 6.9,19 13.9,38.2 21,57.6 410,8.4 832.8,12.7 1264.9,12.7 353.7,0 701,-2.9 1040.4,-8.5 7.6,-20.9 15.1,-41.5 22.5,-61.8 230.6,-629.7 836.6,-1052.7 1508,-1052.7 l 1131.7,0.1 c 11.5,-0.3 23.1,-0.4 35,-0.4 501.2,0.1 1365.6,181.7 1643.8,838.8 949.3,-130.2 1517.1,-295.6 1517.1,-475.7 0,-420 -3088.6,-760.3 -6898.5,-760.3"
         style="fill:#93b2cd;fill-opacity:1;fill-rule:nonzero;stroke:none"
         id="path14" />
      <path
         d="M 29684.5,10376.6 C 29306,10038.8 28591.9,9520.2 27697,9287.3 26739.1,9038 25572.9,9115.9 24388.5,10092.6 v 2095.1 c 0,0 1066.8,-1175 2212.1,-988.8 107.1,17 206,44.5 298.3,80.2 675,259.3 969.5,948.7 1073.3,1273.3 64.9,200.5 177.5,384 339,519.2 251,209.8 666.8,390 1255.7,114.7 1047.6,-489.4 1028.3,-1997.2 117.6,-2809.7"
         style="fill:#f79a29;fill-opacity:1;fill-rule:nonzero;stroke:none"
         id="path16" />
      <path
         d="M 29684.5,10376.6 C 29306,10038.8 28591.9,9520.2 27697,9287.3 c -744.8,434.5 -853.6,1298 -798.1,1991.8 675,259.3 969.5,948.7 1073.3,1273.3 64.9,200.5 177.5,384 339,519.2 251,209.8 666.8,390 1255.7,114.7 1047.6,-489.4 1028.3,-1997.2 117.6,-2809.7"
         style="fill:#cc6633;fill-opacity:1;fill-rule:nonzero;stroke:none"
         id="path18" />
      <path
         d="m 26787.2,9355 c -578.7,0 -1208.5,156.4 -1855.6,576.3 4.3,83.3 8.2,165.1 11.8,245.1 536.8,-291.8 1060.6,-405.5 1550.2,-405.5 226.7,0 446.1,24.4 656,66.8 86.5,-150.4 198.5,-288.5 341.7,-407.1 -223.9,-47.7 -459.5,-75.7 -704.1,-75.6"
         style="fill:#b9733b;fill-opacity:1;fill-rule:nonzero;stroke:none"
         id="path20" />
      <path
         d="m 27491.3,9430.6 c -143.2,118.6 -255.2,256.7 -341.7,407.1 65.8,13.3 130.6,28.3 194.5,45 829.1,215.8 1490.8,696.3 1841.5,1009.2 599.4,534.8 781.6,1394.4 489,2010.1 259.5,-185.7 426.7,-468.9 477.7,-816.6 81.5,-555.3 -152.3,-1169.7 -595.7,-1565.4 -322.3,-287.6 -1081.7,-879.6 -2065.3,-1089.4"
         style="fill:#994c43;fill-opacity:1;fill-rule:nonzero;stroke:none"
         id="path22" />
      <path
         d="m 24580.6,10184.4 c 2256.7,-1793.3 4375.5,-200.3 4976,335.6 443.4,395.7 677.2,1010.1 595.7,1565.4 -62.5,425.9 -299.2,755 -666.5,926.7 -402.9,188.3 -756.6,158.6 -1051.2,-88.1 -126,-105.5 -222.5,-254.3 -279,-430.3 -126.1,-392.4 -526.8,-1322.6 -1523.9,-1484.5 -842.4,-136.8 -1624.5,378.1 -2051.1,735 v -1559.8 m 2190.1,-1211.5 c -881.5,0 -1720.8,324.9 -2504.6,971.4 -44.3,36.6 -70,91 -70,148.4 v 2095 c 0,79.4 48.9,150.7 123,179.3 74,28.6 158,8.8 211.5,-49.9 10,-11 1012.4,-1095.2 2039.5,-928.4 787.3,127.9 1115,897.6 1219.3,1222.6 78.8,245.2 216.5,455.3 398.3,607.5 407.6,341.2 926.4,391.5 1460.9,141.6 488.2,-228.1 802.2,-661.1 884.2,-1219.2 101.2,-690.1 -174.7,-1421.2 -720.2,-1908.1 -296.6,-264.7 -1101.6,-907.4 -2167.2,-1156.6 -295.7,-69.1 -587.5,-103.6 -874.7,-103.6"
         style="fill:#000072;fill-opacity:1;fill-rule:nonzero;stroke:none"
         id="path24" />
      <path
         d="M 25255.4,5631.6 C 25151,4613.7 23689.2,4639.5 23689.2,4639.5 h -1135.4 c -593.3,0 -1123.4,369.7 -1327.1,926.7 -294.5,803.6 -689.4,2003.4 -866.3,3080.6 0,0 -259.9,-78 -488.9,-78 -229.1,0 -488.9,78 -488.9,78 -176.9,-1077.2 -571.9,-2277 -866.3,-3080.6 -203.8,-557 -733.9,-926.7 -1327.1,-926.7 h -1135.5 c 0,0 -1461.7,-25.8 -1566.1,992.1 -29.6,287.2 25.3,521.8 119.3,710.3 v 0.5 c 238.9,478.5 729.4,659.7 729.4,659.7 -268.6,1297.5 -347.7,2979 -370.2,3965.5 -11.6,502.7 -8.8,825.1 -8.8,825.1 0,0 1736.4,-789.4 4908.1,-789.4 h 12.1 c 3171.8,0 4908.2,789.4 4908.2,789.4 0,0 2.7,-308.2 -7.8,-791 -21.9,-981.6 -99.9,-2686.7 -371.2,-3999.6 0,0 953,-352.1 848.7,-1370.5"
         style="fill:#f79a29;fill-opacity:1;fill-rule:nonzero;stroke:none"
         id="path26" />
      <path
         d="m 16050.9,4832 c -12.9,0.7 -1286.9,-9.9 -1372,819.5 -12.5,121.9 -7.3,232.7 10.9,333 130.5,-264.2 462,-591 1299.1,-669.9 382.1,-35.8 691.7,-65.6 946.8,-65.6 718.7,0 1005.4,236.4 1265.3,1240.7 0,0 356,1273.8 85.2,2536.1 0,0 464.5,-229.7 908,-339.9 -0.5,-2.6 -1,-5.1 -1.4,-7.7 C 19018.9,7619.6 18630.9,6437.6 18336,5632.4 18160.7,5153.7 17699.8,4832 17189.2,4832 h -1138.3"
         style="fill:#b9733b;fill-opacity:1;fill-rule:nonzero;stroke:none"
         id="path28" />
      <path
         d="m 23691.8,4832 c -0.7,0 -1.3,0 -1.7,0 -0.6,0 -0.9,0 -1.1,0 h -1135.1 c -510.7,0 -971.6,321.7 -1146.9,800.4 -294.9,805.4 -683,1987.6 -856.9,3045.8 -0.4,2.6 -0.9,5.1 -1.4,7.6 443.6,110.3 908.1,340 908.1,340 -270.8,-1262.3 85.2,-2536.1 85.2,-2536.1 259.9,-1004.3 546.6,-1240.7 1265.3,-1240.7 255.1,0 564.7,29.8 946.8,65.6 837,78.9 1168.5,405.6 1299,669.8 18.2,-100.2 23.5,-211 11,-333 -83.2,-811.5 -1305,-819.4 -1372.3,-819.4"
         style="fill:#b9733b;fill-opacity:1;fill-rule:nonzero;stroke:none"
         id="path30" />
      <path
         d="m 20012.7,10150.2 c -2212.4,0 -4025.2,486.5 -4852.1,752.9 -2.2,84.3 -3.9,164.1 -5.3,238.6 557.9,-177.3 1508.6,-436.4 2712.7,-598.3 614.1,-82.6 1335.6,-143.6 2127.7,-143.6 1382,0 2978.5,185.6 4592.5,765.8 -1.4,-73.9 -3,-153.1 -5.1,-237.1 -1583.9,-580 -3158.7,-778.3 -4570.4,-778.3"
         style="fill:#b9733b;fill-opacity:1;fill-rule:nonzero;stroke:none"
         id="path32" />
      <path
         d="m 24349.7,6818.8 c -23.8,6.7 -57.3,14.7 -87.3,21.6 l -93.6,19.7 c -62.8,12.7 -126.3,22.9 -190.1,31.3 -127.4,16.8 -255.4,24.2 -382,23.8 -127.5,1.4 -251.6,-14.2 -374.3,-35.1 l -89.8,-21.6 -45.2,-10.7 -43.2,-14.8 -87.1,-29.4 -82.5,-38.5 c -27.8,-12.5 -55.7,-25 -80.5,-42.4 l -77.8,-47.1 c -26.4,-14.9 -51,-37.5 -76.6,-55.8 -24.9,-19.9 -52.2,-37.6 -75.4,-59.3 -47.4,-42.4 -96.4,-83.9 -138.8,-131.1 -46.6,-44.1 -85.6,-94.1 -126.4,-143.3 -156.2,-200 -276.7,-438.6 -323.6,-704.5 l -0.6,-3.4 c -2.1,-12.3 -14,-20.6 -26.3,-18.4 -9.4,1.7 -16.5,9 -18.3,17.7 -59.8,286.3 18.2,588.8 164.9,844.9 75.9,127 167,245.3 271.1,350.2 24.8,27.6 53.4,50.6 80,76.1 28,24.5 52.4,51.1 83.7,73.8 62,44.7 121.2,96.4 190.1,130.3 l 100.8,56 105.4,44.8 52.9,22.3 54.1,17.3 108.9,33.4 c 146.6,33.4 295.4,61.1 443.5,64.7 148,6.1 295.7,2.5 441,-16.8 72.7,-9 145.1,-20.1 217.2,-34 36,-6.5 72,-14.9 108,-23.5 36.9,-9.6 70,-18 112.1,-31.1 101.4,-31.4 158.1,-139.1 126.6,-240.5 -30.9,-99.7 -135.5,-156.2 -235.3,-128.1 l -5.6,1.5"
         style="fill:#000072;fill-opacity:1;fill-rule:nonzero;stroke:none"
         id="path34" />
      <path
         d="m 20316.1,8834.1 c 88.9,23 183.5,43.3 275.8,63.3 l 279.4,57.5 279.1,57 c 93.6,18.1 187.1,34.2 285.4,49.7 l 1.7,0.2 c 24.1,3.9 46.7,-12.6 50.5,-36.8 2.1,-13.1 -2,-25.9 -10,-35.4 -69.6,-81.8 -154.7,-142.4 -241,-196.3 -86.6,-54.1 -177.6,-96.3 -268.5,-137.9 -91.3,-40.7 -183.8,-77.5 -277.2,-110.7 -94.3,-32.3 -187.1,-62.1 -286.5,-84.7 -103.5,-23.6 -206.6,41.3 -230.1,144.9 -23.1,101.6 38.9,202.6 139.1,228.6 l 2.3,0.6"
         style="fill:#000072;fill-opacity:1;fill-rule:nonzero;stroke:none"
         id="path36" />
      <path
         d="m 24225.5,5693.5 c 82,-58.4 136,-140.1 177.6,-228.3 39.8,-88.9 63.3,-185.3 72,-282.4 l 4.7,-73 c 1.5,-24.4 -0.9,-48.3 -1.4,-72.6 0,-49.2 -7.9,-96.2 -14.7,-144.1 -7,-47.8 -20.6,-93.2 -32,-139.8 -14.7,-44.9 -31,-89.1 -49.6,-132.4 -41.8,-97.4 -154.7,-142.5 -252.1,-100.6 -90.5,38.8 -135.8,139.2 -108.1,231.4 l 5.1,16.6 c 11,36.5 25.5,71.5 39.7,106.6 11.6,35.3 25.8,70.4 38,105.5 23.1,70.7 46.2,141.5 61.5,214.5 14.2,72.6 26.6,147.2 29.7,224.6 4.1,77 1.2,159.1 -12.3,242 l -0.9,5.4 c -2.4,14.8 7.8,28.8 22.6,31.2 7.4,1.2 14.6,-0.7 20.2,-4.6"
         style="fill:#000072;fill-opacity:1;fill-rule:nonzero;stroke:none"
         id="path38" />
      <path
         d="m 23200.3,5693.5 c 81.9,-58.4 135.9,-140.1 177.5,-228.3 39.8,-88.9 63.4,-185.3 72.1,-282.4 l 4.7,-73 c 1.4,-24.4 -0.9,-48.3 -1.4,-72.6 -0.1,-49.2 -8,-96.2 -14.8,-144.1 -6.9,-47.8 -20.5,-93.2 -32,-139.8 -14.6,-44.9 -31,-89.1 -49.6,-132.4 -41.8,-97.4 -154.7,-142.5 -252,-100.6 -90.6,38.8 -135.9,139.2 -108.2,231.4 l 5.1,16.6 c 11.1,36.5 25.5,71.5 39.8,106.6 11.6,35.3 25.8,70.4 38,105.5 23.1,70.7 46.1,141.5 61.4,214.5 14.2,72.6 26.7,147.2 29.8,224.6 4.1,77 1.1,159.1 -12.3,242 l -0.9,5.4 c -2.4,14.8 7.7,28.8 22.6,31.2 7.3,1.2 14.5,-0.7 20.2,-4.6"
         style="fill:#000072;fill-opacity:1;fill-rule:nonzero;stroke:none"
         id="path40" />
      <path
         d="m 15278.9,7185.9 c 42.1,13.1 75.3,21.5 112.2,31 35.9,8.7 71.9,17.1 108,23.6 72.1,13.9 144.5,25 217.2,33.9 145.2,19.4 293,23 441,16.9 148.1,-3.6 296.9,-31.3 443.5,-64.7 l 108.8,-33.4 54.2,-17.3 52.9,-22.3 105.3,-44.8 101,-56 c 68.8,-34 127.9,-85.6 190,-130.3 31.4,-22.6 55.6,-49.3 83.6,-73.7 26.7,-25.5 55.2,-48.5 80.1,-76.2 104,-104.9 195.2,-223.2 271,-350.2 146.7,-256.1 224.8,-558.6 165,-844.9 -2.6,-12.2 -14.6,-20.2 -26.9,-17.6 -9.4,2 -16.2,9.4 -17.8,18.3 l -0.6,3.4 c -46.8,265.9 -167.3,504.5 -323.5,704.5 -40.9,49.2 -79.9,99.3 -126.4,143.2 -42.5,47.3 -91.4,88.8 -138.8,131.2 -23.1,21.7 -50.5,39.3 -75.4,59.2 -25.7,18.4 -50.3,41 -76.6,55.8 l -77.9,47.3 c -24.7,17.3 -52.6,29.8 -80.4,42.3 l -82.4,38.5 -87.2,29.4 -43.3,14.8 -45.1,10.7 -89.9,21.6 c -122.6,20.8 -246.8,36.4 -374.2,35 -126.7,0.5 -254.6,-6.9 -382.1,-23.7 -63.6,-8.4 -127.2,-18.6 -190,-31.2 l -93.7,-19.8 c -29.8,-6.9 -63.4,-14.9 -87.3,-21.6 l -5.2,-1.5 c -102.2,-28.7 -208.4,30.8 -237.1,133 -28.3,100.4 29,204.8 128,235.6"
         style="fill:#000072;fill-opacity:1;fill-rule:nonzero;stroke:none"
         id="path42" />
      <path
         d="m 19338.2,8460 c -99.4,22.6 -192.2,52.4 -286.5,84.7 -93.5,33.2 -185.9,70 -277.2,110.7 -90.9,41.5 -181.9,83.8 -268.6,137.9 -86.2,53.9 -171.3,114.5 -240.9,196.3 -15.8,18.6 -13.6,46.4 5,62.3 10.2,8.6 23,11.9 35.3,10 l 1.9,-0.3 c 98.3,-15.4 191.7,-31.6 285.3,-49.7 l 279.1,-57 279.4,-57.5 c 92.4,-20 186.9,-40.3 275.9,-63.3 l 2,-0.5 c 102.8,-26.6 164.6,-131.4 138,-234.2 -26,-100.9 -127.8,-162.2 -228.7,-139.4"
         style="fill:#000072;fill-opacity:1;fill-rule:nonzero;stroke:none"
         id="path44" />
      <path
         d="m 15559.4,5661.5 c -13.5,-83 -16.5,-165 -12.3,-242 3.1,-77.4 15.5,-152 29.7,-224.7 15.4,-72.9 38.4,-143.8 61.4,-214.4 12.2,-35.1 26.5,-70.2 38.1,-105.5 14.2,-35.2 28.5,-70.2 39.6,-106.5 l 4.9,-15.8 c 30.9,-101.4 -26.3,-208.7 -127.6,-239.6 -94.3,-28.7 -194,19.5 -232.4,107.8 -18.5,43.4 -34.9,87.7 -49.5,132.5 -11.5,46.6 -25.1,92 -32,139.7 -6.8,48 -14.7,95.1 -14.8,144.1 -0.4,24.4 -2.8,48.3 -1.4,72.7 l 4.7,73 c 8.7,97.1 32.3,193.6 72.1,282.4 41.6,88.3 95.6,169.9 177.6,228.3 12.3,8.7 29.3,5.8 38,-6.5 4.3,-6 5.8,-13.3 4.8,-20 l -0.9,-5.5"
         style="fill:#000072;fill-opacity:1;fill-rule:nonzero;stroke:none"
         id="path46" />
      <path
         d="m 16584.6,5661.5 c -13.4,-83 -16.5,-165 -12.3,-242 3.1,-77.4 15.5,-152 29.7,-224.7 15.4,-72.9 38.4,-143.8 61.5,-214.4 12.2,-35.1 26.4,-70.2 38,-105.5 14.3,-35.2 28.6,-70.2 39.7,-106.5 l 4.8,-15.8 c 30.9,-101.4 -26.2,-208.7 -127.5,-239.6 -94.4,-28.7 -194.1,19.5 -232.4,107.8 -18.6,43.4 -34.9,87.7 -49.6,132.5 -11.4,46.6 -25,92 -32,139.7 -6.7,48 -14.7,95.1 -14.7,144.1 -0.4,24.4 -2.8,48.3 -1.4,72.7 l 4.6,73 c 8.8,97.1 32.3,193.6 72.1,282.4 41.6,88.3 95.6,169.9 177.7,228.3 12.2,8.7 29.2,5.8 38,-6.5 4.3,-6 5.8,-13.3 4.7,-20 l -0.9,-5.5"
         style="fill:#000072;fill-opacity:1;fill-rule:nonzero;stroke:none"
         id="path48" />
      <path
         d="m 15150.3,11510 c 5.9,-761.5 52,-2910.4 374.1,-4468.7 19.2,-93.1 -32.5,-186.2 -121.6,-219.2 -32.5,-12.3 -811.4,-317.7 -723.9,-1170.6 85.1,-829.4 1359.1,-818.8 1372,-819.5 h 1138.3 c 510.6,0 971.5,321.7 1146.8,800.4 294.9,805.2 682.9,1987.2 856.8,3045.8 9,54.6 41,102.7 88,131.9 46.8,29.3 104.2,37 157.1,21 2.2,-0.6 236.8,-70 433.6,-70 164.6,0 368.7,50.5 433.5,70 52.9,15.9 110.2,8.3 157.2,-21 46.9,-29.2 78.9,-77.3 87.9,-131.9 173.9,-1058.2 562,-2240.4 856.9,-3045.8 175.3,-478.7 636.2,-800.4 1146.9,-800.4 H 23689 c 0.2,0 0.5,0 1.1,0 44.6,0 1289.9,-0.1 1374,819.4 87.4,853 -691.5,1158.4 -724.6,1171 -88.4,33.4 -140,126.4 -120.9,218.9 322.1,1558.3 368.2,3707.2 374.1,4468.7 -608.6,-220.6 -2217.1,-699.1 -4715.3,-699.1 -2,0 -4,0 -5.9,0.1 -2,-0.1 -4,-0.1 -6,-0.1 -2498.2,0 -4106.6,478.5 -4715.2,699.1 m 868.3,-7062.8 c -572.6,0 -1627.4,240 -1722.2,1165 -83,809.1 437.2,1299.4 821.4,1502.1 -373.1,1943.5 -353.5,4566.8 -352.5,4680.3 0.6,65.1 34.1,125.4 88.9,160.4 54.9,34.9 123.7,39.8 183,12.8 16.8,-7.6 1742.8,-772.4 4828.3,-772.4 2,0 4,0 6,-0.1 1.9,0.1 3.9,0.1 5.9,0.1 3085.6,0 4811.6,764.8 4828.6,772.5 59.2,26.8 128.1,21.9 182.8,-13.1 54.8,-35 88.3,-95.2 88.9,-160.2 1,-113.5 20.6,-2736.8 -352.5,-4680.3 384.1,-202.7 904.3,-693 821.4,-1502.1 -96.8,-944.4 -1194.2,-1174.6 -1761,-1164.6 l -1131.7,-0.1 c -671.4,0 -1277.4,423 -1508,1052.7 -282,770.1 -647.9,1880.1 -839.7,2912.5 -98.2,-19 -219,-36.2 -334.7,-36.2 -115.8,0 -236.5,17.2 -334.8,36.3 C 19344.9,7379.9 18979,6270.2 18697.1,5500.2 18466.5,4870.5 17860.5,4447.5 17189.2,4447.5 H 16054 c -11.5,-0.2 -23.3,-0.3 -35.4,-0.3"
         style="fill:#000072;fill-opacity:1;fill-rule:nonzero;stroke:none"
         id="path50" />
      <path
         d="m 16752.5,20078.1 -210.4,-1521.7 -68.1,-494.9 -201.1,-1458.4 c 0,0 -1694.1,68.1 -2878.4,-381.7 l -657,1305.7 -746.5,1484.2 c 0,0 1026.7,407 2268.7,719.1 814.1,203.8 1721.5,366.9 2492.8,347.7"
         style="fill:#f79a29;fill-opacity:1;fill-rule:nonzero;stroke:none"
         id="path52" />
      <path
         d="m 14447.6,16683.4 c 2.6,30.9 3.9,62.1 3.9,93.2 0.1,278.6 -102.9,562.9 -342.4,834.5 0,0 13.2,82.5 17.3,212.5 497.9,85.1 1052.7,157.7 1651.2,201.5 -89.7,-378 -186.9,-795.5 -287.1,-1238.5 -303.6,-14.5 -667.7,-44.3 -1042.9,-103.2"
         style="fill:#b9733b;fill-opacity:1;fill-rule:nonzero;stroke:none"
         id="path54" />
      <path
         d="m 15960.7,18785.5 c -570.2,243 -1063.8,510.9 -1490.2,797.6 233.1,56 472,107.9 711.6,152.4 278.6,-151.2 580.4,-295.5 906.5,-431.6 -38,-152.1 -81,-326.1 -127.9,-518.4"
         style="fill:#ac6b3f;fill-opacity:1;fill-rule:nonzero;stroke:none"
         id="path56" />
      <path
         d="m 12258.8,18907 1231.1,-2448 c 970.9,322.7 2169.9,344 2615.8,339.8 l 426.2,3087.9 c -1573.6,-27.9 -3634.8,-743.9 -4273.1,-979.7 m 1135.7,-2878.2 c -70.8,0 -138.3,39.3 -171.9,105.9 l -1403.2,2790.1 c -24.2,48.2 -27.1,104.3 -7.9,154.7 19.2,50.4 58.7,90.5 108.8,110.4 116.4,46.1 2869.9,1129.9 4836.9,1080.6 54.8,-1.4 106.3,-26.1 141.7,-67.8 35.4,-41.7 51.4,-96.5 43.9,-150.7 l -479.7,-3475.4 c -13.4,-98 -100.2,-169.7 -198.1,-165.8 -16.7,0.7 -1669.2,61.4 -2802.3,-369.4 -22.4,-8.5 -45.5,-12.6 -68.2,-12.6"
         style="fill:#000072;fill-opacity:1;fill-rule:nonzero;stroke:none"
         id="path58" />
      <path
         d="m 10227.7,18842.7 c 0,0 2.2,93.9 -14.3,245 -43.4,403.2 -218.62,1215.1 -915.73,1742.4 -538.31,406.5 -478.43,964.6 -100.46,1289.2 294.97,253.8 784.36,364.8 1333.69,150 1253.5,-489.4 1723.2,-1615.5 1723.2,-2212.6 l -2026.4,-1214"
         style="fill:#f79a29;fill-opacity:1;fill-rule:nonzero;stroke:none"
         id="path60" />
      <path
         d="m 10288.9,19684.3 c -127.9,423.6 -379.75,924.4 -875.38,1299.1 -305.82,231.1 -397.61,531.5 -245.56,803.4 17.72,31.7 38.39,62.3 61.81,91.5 59.23,-225.9 210.35,-456.8 545.32,-610.9 452.31,-208.1 841.21,-677.3 1110.71,-1080.7 -210.6,-135.2 -414.3,-302.7 -596.9,-502.4"
         style="fill:#ac6b3f;fill-opacity:1;fill-rule:nonzero;stroke:none"
         id="path62" />
      <path
         d="m 11836.7,20578.7 c -242.4,529 -723.4,1102.8 -1525.5,1415.9 -201.9,79 -395.65,113.9 -574.64,113.9 -86.21,0 -169.02,-8.1 -247.63,-23.3 130.78,66.5 288.61,105.9 465.21,105.9 156.16,0 327.06,-30.8 506.96,-101.1 843.7,-329.5 1304.4,-961.6 1494.8,-1492.1 -39.1,-5.1 -78.8,-11.5 -119.2,-19.2"
         style="fill:#fcd7a9;fill-opacity:1;fill-rule:nonzero;stroke:none"
         id="path64" />
      <path
         d="m 9954.14,22191.1 c -369.43,0 -656.64,-172.6 -786.18,-404.3 -152.05,-271.9 -60.26,-572.3 245.56,-803.4 723.28,-546.8 927.58,-1362.2 984.68,-1814.5 l 1658.6,993.6 c -51.3,563.7 -501.3,1500 -1595.7,1927.5 -179.9,70.3 -350.8,101.1 -506.96,101.1 m 273.56,-3540.7 c -33.4,0 -66.8,8.7 -96.6,26 -60.5,35.2 -97.1,100.3 -95.7,170.2 0.3,11.6 11.6,1175.9 -853.72,1830 -459.03,347 -596.15,856.5 -349.36,1297.9 265.62,474.9 958.4,790.1 1768.78,473.7 1344.3,-525.2 1845.2,-1745.7 1845.2,-2391.6 0,-67.6 -35.4,-130.2 -93.4,-164.9 l -2026.4,-1214 c -30.4,-18.2 -64.6,-27.3 -98.8,-27.3"
         style="fill:#000072;fill-opacity:1;fill-rule:nonzero;stroke:none"
         id="path66" />
      <path
         d="m 11759.7,14879.9 c -1438.6,213.7 -2349.96,1206.3 -2215.32,3041.6 0.53,12.6 1.59,25.8 2.71,39 158.21,1958.8 2042.91,2825.6 2891.01,2623.5 402.1,-95.6 568,-367.5 631.7,-626.8 v -0.5 c 70.9,-287.9 14.9,-560.3 14.9,-560.3 1266.2,-270.9 1024.4,-1785.3 1024.4,-1785.3 1165.2,-1321.6 -900.8,-2946.6 -2349.4,-2731.2"
         style="fill:#f79a29;fill-opacity:1;fill-rule:nonzero;stroke:none"
         id="path68" />
      <path
         d="m 12029.2,14860.5 c -91.5,0 -181.6,6.3 -269.5,19.4 -1344.5,199.7 -2228.44,1079.7 -2228.46,2692.1 -0.01,112.9 4.33,229.4 13.14,349.5 153.73,-781.7 522.92,-1760.1 1405.62,-2218.7 377.2,-196.1 737.4,-276.3 1065.6,-276.3 1057.5,0 1785,831.8 1695.3,1299.7 -82.6,431.2 -732.8,495.3 -1111.8,495.3 -160.2,0 -271.9,-11.4 -271.9,-11.4 85.1,310.9 334.9,520.2 584.2,656.5 525.3,286.9 470.9,1059.5 -88.6,1271.9 -203.2,77.2 -411.6,95.9 -566,95.9 -85.7,0 -154.8,-5.7 -197.1,-10.5 -467,-207.7 -665.8,-526.3 -665.8,-526.3 0,0 116.3,1261.2 1586.6,1261.2 29.3,0 59,-0.5 89.3,-1.6 v -0.5 0 l 14.9,-560.3 c -50,2.6 -98.7,3.9 -146.2,3.9 -359.2,0 -647.8,-73.8 -873.9,-174.2 l 1020.1,170.3 c 916.3,-196 1042.9,-1043.2 1042.9,-1496.5 0,-173.1 -18.5,-288.8 -18.5,-288.8 v 0 0 c 239.5,-271.6 342.5,-555.9 342.4,-834.5 -0.3,-994.9 -1314.7,-1916.1 -2422.3,-1916.1"
         style="fill:#b9733b;fill-opacity:1;fill-rule:nonzero;stroke:none"
         id="path70" />
      <path
         d="m 13062.4,19205.2 -102.1,2.9 c -36.3,0 -72.6,0.8 -109.4,-0.5 -73.2,-1.2 -146.6,-5.4 -219.8,-11.9 -146.4,-12.9 -290.8,-38.6 -432.1,-76.9 -142.4,-37 -275.4,-97 -407.1,-166.7 -31.6,-19.2 -65,-36.9 -98.1,-55.8 l -93.4,-65.5 -48.1,-33.1 -44.2,-37.9 c -30.2,-25 -61.3,-50.3 -94,-75.5 l -2.4,-1.9 c -10.8,-8.3 -26.2,-6.3 -34.5,4.5 -5.6,7.2 -6.5,16.7 -3.2,24.6 16.1,37.9 33.8,75.9 52.4,114 l 28.9,57 c 10.9,18 23.4,35 35.5,52.4 24.5,34.5 48.8,70.3 75.6,104.1 29.2,30.9 58.2,63 88.9,93.6 124.5,119.1 271.7,219.9 431,288.6 158.2,71.9 326,121 496,149.6 85.2,13.6 170.9,23.3 257.3,26.1 43.1,2 86.5,2.4 130,0.9 44.9,-1.3 84.8,-4.2 136.9,-10.5 105.2,-12.9 180.1,-108.6 167.3,-213.9 -12.2,-98.9 -97.5,-171 -195.1,-168.6 l -16.3,0.4"
         style="fill:#000072;fill-opacity:1;fill-rule:nonzero;stroke:none"
         id="path72" />
      <path
         d="m 14043.8,17430.4 -16.8,4.4 c -6.6,1.9 -15.2,3.5 -22.9,5.4 -15.4,3.9 -31.8,7.5 -48.5,10.7 -32.7,7.1 -67.4,12.5 -101.5,17.8 -69,9.4 -139.3,16.8 -210.4,19 -142,5 -286.6,-2.4 -431.5,-24.5 -71.3,-15.5 -145.6,-23.3 -216.7,-45 -35.7,-10.3 -72.8,-17.4 -108.9,-27.8 -35.7,-11.5 -71.2,-23.9 -107.7,-34.8 l -54.8,-16.9 -53.1,-20.9 -108.5,-40.8 c -72.1,-28.7 -142.1,-62.9 -217.3,-91.6 l -2.8,-1 c -15.8,-6 -33.5,1.9 -39.5,17.7 -4.4,11.5 -1.4,23.9 6.7,32.2 56.2,57.9 114.4,115.6 176.6,168.8 65.1,48.9 127.7,104.4 199.2,145.8 35,22.4 70.8,43.2 106.4,65 36.5,19.9 74,38.5 111.8,56.6 37.5,18.7 75.7,36.4 115.3,50.7 39.2,15.4 78.6,31.1 118.8,44.3 161.4,52 330.9,85.1 503.8,92.9 43.2,3.1 86.6,3.1 130.1,1.3 43.5,-0.2 87.2,-4.5 130.9,-8.5 43.8,-5.9 87.4,-10.5 131.5,-20.7 22,-4.5 44.1,-9.1 66.6,-15.5 11.3,-3.2 22,-5.8 34.2,-9.8 12.3,-4 22.1,-6.7 39.6,-13.1 99.6,-36.2 151,-146.3 114.8,-245.9 -34,-93.5 -133.1,-144.5 -227.6,-120.4 l -17.8,4.6"
         style="fill:#000072;fill-opacity:1;fill-rule:nonzero;stroke:none"
         id="path74" />
      <path
         d="m 12175.1,20419.9 c -345.3,0 -842.4,-139.9 -1320.8,-487.3 -378.9,-275.3 -1027.79,-899.5 -1115.59,-1987.7 -132.22,-1637.8 595.49,-2658.8 2049.09,-2874.9 832.3,-123.8 1917.6,421.3 2322.5,1166.2 166.2,305.6 275.7,770.1 -145.5,1248 -37.9,43 -54.6,100.7 -45.6,157.4 8.4,54.1 195.4,1337.7 -875,1566.6 -103,22.1 -169.1,122.9 -148.2,226.1 16.3,82.4 141.3,809.3 -502.3,962.8 -62.7,14.9 -136.3,22.8 -218.6,22.8 z m -144,-5751.8 c -101.8,0 -202,7.1 -299.8,21.6 -1658.6,246.6 -2524.57,1444.3 -2375.89,3286.2 74.27,920.2 526.37,1725.6 1272.99,2267.8 601.2,436.6 1346.6,648.4 1854.5,527.4 706.2,-168.4 843.9,-803.7 814,-1233 932.8,-303.9 1077.3,-1293.5 1014,-1868.1 391.1,-488.3 440.6,-1059.4 137.2,-1617.4 -434.1,-798.6 -1487.7,-1384.4 -2417,-1384.5"
         style="fill:#000072;fill-opacity:1;fill-rule:nonzero;stroke:none"
         id="path76" />
      <path
         d="m 18132.7,19412.6 c 0,0 21.7,-2124.4 1738.8,-2124.4 1717,0 1912.8,1987.3 1912.8,1987.3 l -3651.6,137.1"
         style="fill:#f79a29;fill-opacity:1;fill-rule:nonzero;stroke:none"
         id="path78" />
      <path
         d="m 19871.5,17676.2 c -535,0 -892.3,424.5 -1117.4,856.9 705.2,-121.5 1420.2,-182.7 2136.5,-182.7 37,0 74,0.1 110.9,0.5 -262.5,-354.5 -636.2,-674.7 -1130,-674.7"
         style="fill:#b9733b;fill-opacity:1;fill-rule:nonzero;stroke:none"
         id="path80" />
      <path
         d="m 18338.5,19212.4 c 52.4,-498.1 306,-1732 1533,-1732 1227.8,0 1590.4,1135.7 1688.4,1611.2 l -3221.4,120.8 m 1533,-2116.5 c -786.1,0 -1370.8,408.3 -1690.9,1180.9 -231.7,559 -239.9,1110.6 -240.1,1133.8 -0.6,52.6 20.4,103.1 58.1,139.8 37.7,36.6 87.8,56.6 141.3,54.3 l 3651.6,-137 c 53,-2 102.8,-25.8 137.7,-65.7 34.8,-40 51.7,-92.5 46.4,-145.3 -2.1,-21.8 -55.8,-540.6 -334,-1064.9 -380.3,-717 -992.4,-1095.9 -1770.1,-1095.9"
         style="fill:#000072;fill-opacity:1;fill-rule:nonzero;stroke:none"
         id="path82" />
      <path
         d="m 27405.4,14338.3 c -140.1,-190.7 -243.4,-300.5 -243.4,-300.5 0,0 430.7,-1278.8 -952.5,-1814.4 -1328.8,-513.6 -2103.9,380.1 -2336.2,1434.9 -9.9,43.3 -18.7,87.3 -26.4,131.8 -196.1,1109.6 1110.2,2245 1110.2,2245 0,0 -849.3,704.8 -1541.4,795.9 -412.6,55 -446.6,930.6 -407.7,1629.3 27.6,472.4 88,864.1 88,864.1 0,0 2959.1,196.1 4485.2,-1507.3 1174.4,-1311.2 292.7,-2842.7 -175.8,-3478.8"
         style="fill:#f79a29;fill-opacity:1;fill-rule:nonzero;stroke:none"
         id="path84" />
      <path
         d="m 25101.3,16162.2 c -6.5,7.5 -13.7,14.4 -21.4,20.8 -25.3,21 -450.2,370.8 -954.8,615 -130,563.8 -265.5,1108.8 -402.8,1597.7 304.2,-57.5 658.4,-160.8 1051.3,-338 1300.1,-586.3 1230.8,-1384.1 327.7,-1895.5"
         style="fill:#b9733b;fill-opacity:1;fill-rule:nonzero;stroke:none"
         id="path86" />
      <path
         d="m 25477.8,12266.3 c -167.1,0 -323.9,30.1 -469.6,90.2 -27.1,155.1 -57.8,328.6 -91.7,516.8 55.2,-13.6 113.3,-21.1 174.8,-21.1 144.9,0 307.4,41.5 489.2,140.8 995.8,544.2 692.3,1322.4 1588.7,1352.6 -87.2,-111.3 -145.7,-174.4 -147.3,-176.2 -48,-51.2 -64,-125.3 -42.1,-192.1 14.8,-45.3 350.3,-1114.1 -839.9,-1574.4 -235.4,-91.1 -456.6,-136.6 -662.1,-136.6"
         style="fill:#b9733b;fill-opacity:1;fill-rule:nonzero;stroke:none"
         id="path88" />
      <path
         d="m 27824.4,15517 c 108.4,617.2 12,1317.5 -572.9,1970.5 -772.3,862.2 -1912.1,1237.7 -2849.3,1398.3 119.6,41.2 235.5,84.4 348,129.5 896.2,-160.1 1966.8,-521.9 2687.8,-1326.7 545.7,-609.3 675.4,-1339.2 386.4,-2171.6"
         style="fill:#fcd7a9;fill-opacity:1;fill-rule:nonzero;stroke:none"
         id="path90" />
      <path
         d="m 24822.4,16172.3 c 40.7,31.6 80.4,57.1 122.9,82.4 42.3,24.7 85.7,47.9 130.4,69.3 89.1,42.6 183.3,80.5 289.4,93.2 18.6,2.2 35.4,-11 37.6,-29.6 0.8,-6.8 -0.5,-13.5 -3.3,-19.2 l -0.5,-0.7 c -46.4,-92.5 -97.2,-170.4 -149.2,-247.8 -25.6,-38.9 -51.8,-76.9 -78,-114.4 -26.1,-37 -54.2,-74.7 -79.8,-107.6 -66,-84.4 -187.8,-99.4 -272.3,-33.5 -84.4,65.9 -99.4,187.7 -33.6,272.1 9.9,12.7 21.1,23.8 33.2,33.3 l 3.2,2.5"
         style="fill:#000072;fill-opacity:1;fill-rule:nonzero;stroke:none"
         id="path92" />
      <path
         d="m 27220,13854.6 -80.9,-28.1 c -30,-10.7 -59.9,-22.6 -90.3,-34.7 -59.8,-25.2 -119.7,-53.5 -175.3,-90.8 -56.7,-36.3 -106.9,-82.6 -152.7,-137.8 -47.2,-55.1 -79.8,-122.3 -112.6,-196.3 l -0.4,-0.7 c -1.6,-3.8 -6.1,-5.5 -9.9,-3.8 -2.2,1 -3.8,3.1 -4.3,5.5 -14.8,78.6 -23.2,166.2 -4,251.5 15.4,86.1 47.8,173.1 96.3,249.8 47.9,77.3 107,149.2 176.3,208.4 34.5,29.8 71.2,57 110.4,80.8 19.2,12.2 39.6,23.3 60.4,33.6 22.2,10.7 40,18.8 71.3,29.3 100.6,33.7 209.5,-20.6 243.2,-121.3 33.4,-99.9 -19.8,-207.8 -118.9,-242.4 l -8.6,-3"
         style="fill:#000072;fill-opacity:1;fill-rule:nonzero;stroke:none"
         id="path94" />
      <path
         d="m 23263.7,19137.7 c -91.7,-693.6 -138.1,-1748.4 93,-2056.8 35.3,-47 63.7,-56.3 84.5,-59 738.2,-97.5 1602.3,-808.7 1638.7,-838.9 43.4,-36 68.8,-89.3 69.5,-145.7 0.6,-56.5 -23.6,-110.3 -66.2,-147.3 -12.1,-10.6 -1221.6,-1078.4 -1047.2,-2066.6 115.7,-655.3 422.9,-1167 843,-1404 351.9,-198.5 776.2,-204 1260.9,-16.5 1190.2,460.3 854.7,1529.1 839.9,1574.4 -21.9,66.8 -5.9,140.9 42.1,192.1 4.6,4.9 470.4,508.5 747.6,1200.7 357.6,893.6 246.1,1673.6 -331.5,2318.5 -1251.8,1397.4 -3557.7,1459.1 -4174.3,1449.1 m 2214,-7254.5 c -284.3,0 -549.7,67.2 -787.6,201.4 -520.6,293.6 -897,903 -1032.7,1672 -169.1,957.8 639.4,1895.8 1004.4,2263 -272.7,199.8 -818.5,561.3 -1271,621.1 -134.2,17.7 -252.3,90.2 -341.8,209.7 -427.4,570.5 -173.2,2307.3 -142.9,2503.5 13.8,89 87.5,156.4 177.3,162.4 124.6,8.1 3070.7,181.8 4641,-1571.2 676.2,-754.8 813.7,-1698.3 397.8,-2728.5 -240.7,-595.9 -598,-1052.3 -749,-1229.9 75.3,-353.4 190.6,-1445.4 -1094.6,-1942.4 -277.8,-107.5 -546.9,-161.1 -800.9,-161.1"
         style="fill:#000072;fill-opacity:1;fill-rule:nonzero;stroke:none"
         id="path96" />
      <path
         d="m 24957,11512 c -5129,-2075.3 -10279.8,0 -10279.8,0 334.5,2409.9 1042,5472.9 1456.2,7169.2 53.8,222.4 102.7,420.7 145.5,591.6 1.2,3.3 1.8,6.6 2.2,9.9 106.6,425.7 171.4,674.6 171.4,674.6 l 1788.1,-554.3 c 0,0 183.4,-945.4 727.8,-1509 231.3,-239.5 527.9,-409.8 903.1,-409.8 309.2,0 574.6,104.9 799.2,264.2 690,486.7 994.3,1478.2 994.3,1478.2 h 1599.6 c 106,-305.3 212.6,-661.4 318.6,-1050.3 11,-40.6 22,-81.8 33,-123 697,-2605.4 1340.8,-6541.3 1340.8,-6541.3"
         style="fill:#ffffff;fill-opacity:1;fill-rule:nonzero;stroke:none"
         id="path98" />
      <path
         d="m 19995.7,10784.3 c -768.3,0 -1468.7,58.9 -2065,138.6 -1527.6,204.4 -2660,578 -3041.8,715.3 236.1,1642.9 639.4,3578.3 999.2,5163.7 -72.9,-1335.8 151.1,-2721.2 1319.2,-3099.2 0,0 -503.7,-226.9 -1045,-226.9 -211.5,0 -428.7,34.6 -623.9,130.9 0,0 871.7,-2189.7 4278.6,-2189.7 3406.8,0 3985.4,916.8 3985.4,916.8 0,0 -232.9,-44.3 -633.5,-44.3 -277.4,0 -635.2,21.3 -1051.8,93.1 0,0 1654.5,16 1884.7,1517.8 69.9,455.7 37.1,1134.7 -42.5,1859.5 386.2,-1811 694.4,-3602.2 782.6,-4126.3 -1662.2,-646.9 -3321.1,-849.3 -4746.2,-849.3"
         style="fill:#bfbfdc;fill-opacity:1;fill-rule:nonzero;stroke:none"
         id="path100" />
      <path
         d="m 19158.9,12464.3 c 107.8,18.8 217.8,29.4 322.8,58.2 151.6,41.5 296.8,39.2 444.7,-14.5 216.2,-78.5 436.2,-92.5 654.9,-10.6 359,134.4 485.6,494.9 285.6,822.4 -50.2,82.2 -117.8,156.8 -188.7,222.5 -140.4,130.4 -259.6,274.8 -354.2,441.8 -126.2,222.7 -321.1,341.8 -576.6,345.7 -257.8,4 -459.4,-109.9 -588,-332.9 -90.9,-157.4 -202.9,-287.7 -354.7,-388.3 -129.7,-86 -226.8,-204.6 -285.1,-351.2 -101.7,-256.3 -15.4,-516.5 218.7,-662.3 118.7,-73.9 259.7,-113.5 418.4,-117.6 0.8,-4.4 1.4,-8.8 2.2,-13.2"
         style="fill:#ed7335;fill-opacity:1;fill-rule:nonzero;stroke:none"
         id="path102" />
      <path
         d="m 19917.1,15473.9 c -9.8,-147.2 -5.3,-293.1 59.2,-427.9 33.8,-70.6 76.7,-141.3 131,-196.8 180.8,-184.9 449.2,-163.9 615.4,48.6 149.6,191.2 198.1,408.9 126.6,644.2 -65,213.9 -190.1,389.6 -368.8,523.9 -45.7,34.4 -98.9,62 -152.7,81.3 -109.1,39.2 -202.1,4.9 -267.7,-91 -67.4,-98.5 -93.5,-212.1 -112.4,-327.1 -13.9,-84.5 -20.7,-170.1 -30.6,-255.2"
         style="fill:#ed7335;fill-opacity:1;fill-rule:nonzero;stroke:none"
         id="path104" />
      <path
         d="m 19674.2,15479.4 c -18,143.9 -31.1,288.6 -56.4,431.2 -10.9,61.3 -40.7,122.2 -73.4,176.1 -52.3,86.1 -134.8,115.8 -233.5,95.2 -119.8,-24.8 -214.4,-94.3 -300.4,-176.3 -150.2,-143.4 -268.5,-309.1 -304,-517.4 -36.7,-215.5 11.5,-415.8 158.8,-582 184.7,-208.7 468,-190.9 644.9,35.4 88.4,113.1 133.3,243.3 146.5,384.9 4.7,50.2 3.5,100.9 5,151.4 4.2,0.5 8.3,1 12.5,1.5"
         style="fill:#ed7335;fill-opacity:1;fill-rule:nonzero;stroke:none"
         id="path106" />
      <path
         d="m 17862,14501.7 c -7.4,-267.9 87.9,-473.5 304.8,-611.7 239.1,-152.4 506.6,-38.3 571.9,238.3 25.9,109.7 24.3,219.8 -9.5,326.5 -57.2,180.9 -141.5,348.6 -269,490.9 -35.1,39.2 -77.6,74.5 -122.8,101.2 -91.6,54.1 -182.6,41.5 -261.3,-30.2 -111.2,-101.4 -161.6,-235.2 -193.1,-377.5 -10.9,-49.2 -15.4,-99.7 -21,-137.5"
         style="fill:#ed7335;fill-opacity:1;fill-rule:nonzero;stroke:none"
         id="path108" />
      <path
         d="m 20742.7,14187.4 c 15.5,-71.2 23,-145.3 48,-212.9 73.5,-197.2 277.1,-282.3 472.6,-203.8 239.1,96.1 398.4,344 394.6,613.7 -2,144.2 -28,283.2 -95.7,411.6 -20.5,38.7 -46.5,75.8 -75.4,108.8 -79.2,90.3 -178.7,107.5 -284.7,50.9 -29.4,-15.7 -58.7,-34.3 -82.5,-57.3 -171.8,-165.9 -293.3,-362.5 -352.9,-595.1 -9.4,-36.8 -10.8,-75.5 -15.9,-113.4 -2.7,-0.9 -5.4,-1.7 -8.1,-2.5"
         style="fill:#ed7335;fill-opacity:1;fill-rule:nonzero;stroke:none"
         id="path110" />
      <path
         d="m 18670.1,17943.8 c -653.8,117.3 -1299.2,286.3 -1929.2,506.6 -146.9,51.6 -289.3,104.4 -427.5,158.6 49.7,204.4 95.4,389.5 135.7,551.7 95.4,-36.1 192.5,-71.4 291.9,-106.2 432.2,-151.1 871.5,-278.1 1315.8,-380.8 76.1,-17.6 152.5,-34.5 228.8,-50.7 93.6,-222.1 219.4,-463.5 384.5,-679.2"
         style="fill:#b2b2d4;fill-opacity:1;fill-rule:nonzero;stroke:none"
         id="path112" />
      <path
         d="m 20978.2,17746.6 c 203.9,185.6 368.7,406.1 497.9,617.4 240.9,11.2 481.7,29.4 722.2,54.6 379.6,39.8 735.8,94.3 1070.4,162 53.4,-180.5 106.9,-371.5 160.1,-570.5 -380.3,-83.7 -789.6,-149.6 -1230.4,-195.8 -406.2,-42.5 -813.5,-65.1 -1220.2,-67.7"
         style="fill:#b2b2d4;fill-opacity:1;fill-rule:nonzero;stroke:none"
         id="path114" />
      <path
         d="m 14888.9,11638.2 c 381.8,-137.3 1514.2,-510.9 3041.8,-715.3 1702.2,-227.7 4252.8,-284.9 6811.2,710.7 -147,872.9 -904.2,5261.3 -1615.1,7400.7 h -1325 c -162.5,-434.5 -750,-1742.6 -1930.3,-1742.6 -1225.8,0 -1686.9,1521.9 -1794.3,1960.4 l -1488.9,461.5 c -237.9,-932 -1259.1,-5012.1 -1699.4,-8075.4 m 5106.8,-1238.4 c -792.1,0 -1513.6,61 -2127.7,143.6 -1930.6,259.6 -3209.5,768.9 -3262.9,790.5 -81.9,32.9 -130.8,117.4 -118.6,204.7 485.4,3495.1 1767.1,8417.7 1780,8467 13.2,50.8 46.7,94 92.5,119.5 45.9,25.5 100.3,31.1 150.4,15.6 l 1787.9,-554.3 c 67.7,-21 118.3,-77.5 131.8,-147 3.4,-17.5 357.5,-1763.2 1442.4,-1763.2 1100.8,0 1605,1590.8 1609.9,1606.9 24.9,80.6 99.4,135.7 183.8,135.7 h 1599.4 c 81.9,0 154.8,-51.9 181.6,-129.3 810.6,-2338.2 1664.7,-7526.5 1700.7,-7746.2 14.5,-88.7 -34.4,-175.6 -117.7,-209.3 -1762.5,-713.2 -3525.7,-934.2 -5033.5,-934.2"
         style="fill:#000072;fill-opacity:1;fill-rule:nonzero;stroke:none"
         id="path116" />
      <path
         d="m 28122.4,25835.2 c 0,0 1621.4,-6626 -5924.1,-7416.6 -1842.6,-192.9 -3708.5,24.5 -5457.3,635.9 -2805.7,981.1 -4036,2510.1 -4495.2,4007.4 -66,215.5 -116,430.8 -152.7,643.4 -54.5,319 -78.9,632.6 -80.1,935.1 -1.7,214.8 9.1,424.2 28,625.8 126.3,1362.4 639.8,2368.3 639.8,2368.3 -512.5,4069.4 938.2,6244.7 1613.2,7014.9 222.6,253.6 538.3,408.1 875.4,418.4 1983.9,58 3681.4,-2694.8 3681.4,-2694.8 1012.2,155.9 2210.8,26.5 2210.8,26.5 0,0 1196.3,-149.7 2145.6,-534.1 0,0 2284.9,2288.8 4202.3,1776.1 325.8,-87.4 597.5,-310.4 755.8,-608.4 479.8,-904.7 1391.5,-3355.4 -42.9,-7197.9"
         style="fill:#f79a29;fill-opacity:1;fill-rule:nonzero;stroke:none"
         id="path118" />
      <path
         d="m 23234.8,31864.7 -62.7,-21.1 c 0,0 -902,415.2 -2110.4,556 -1208.4,140.8 -2181.8,-55.9 -2181.8,-55.9 l -56.1,35 c 0,0 -947.6,-763.7 -821.3,-2250.1 10.3,-120.8 145.9,-164.8 218.3,-71.9 311.9,400.5 972.2,1198.7 1481.3,1474.5 167,90.5 361.6,-15.4 400.3,-215.5 27.4,-141.1 46.5,-345.6 41.7,-641.6 -12.1,-760.3 -116.2,-1688.5 253.8,-2099.4 114.1,-126.8 290.1,-147.3 430.3,-50.2 454.6,314.9 566.6,1242.1 729.6,1984.9 63.4,289.2 129.1,483.8 188.1,614.8 83.7,185.8 297.5,244.1 439.2,117.7 432,-385.5 891.1,-1314.2 1102.6,-1775.6 49.1,-107.1 191.2,-95.5 229,19.8 464.7,1417.5 -281.9,2378.6 -281.9,2378.6"
         style="fill:#cc6633;fill-opacity:1;fill-rule:nonzero;stroke:none"
         id="path120" />
      <path
         d="m 14754.6,25959.4 c -80.4,258.7 -109.2,538.1 -75.9,824.6 128,1098.4 1122.1,1885 2220.5,1757 1098.2,-128 1884.8,-1122.1 1756.9,-2220.4 -50.8,-435.8 -237.9,-822.6 -513.9,-1122.5 0,0 -653.3,591.7 -1824.5,728.2 -1171.2,136.4 -1563.1,33.1 -1563.1,33.1"
         style="fill:#ffffff;fill-opacity:1;fill-rule:nonzero;stroke:none"
         id="path122" />
      <path
         d="m 18324.9,26560.2 c -55.2,-473.6 -383,-848.7 -808.9,-986.3 -425.2,200.9 -863.5,314.1 -1274.6,372.2 -197.6,238.8 -300.8,554.9 -262.1,887.4 75.5,648.1 661.9,1112.1 1309.5,1036.7 647.7,-75.5 1111.6,-661.9 1036.1,-1310"
         style="fill:#000072;fill-opacity:1;fill-rule:nonzero;stroke:none"
         id="path124" />
      <path
         d="m 18267.1,25083.2 -249.7,229.7 c 262.6,285.5 425.2,640.7 470.2,1027.3 116.9,1003.7 -604.5,1915.4 -1608.1,2032.3 -1003.9,116.9 -1915.3,-604.5 -2032.2,-1608.1 -30,-256.5 -6.6,-510.4 69.3,-754.7 l -324,-100.7 c -90.1,289.8 -117.8,590.8 -82.4,894.7 138.7,1189.4 1218.8,2044.4 2408.6,1905.8 1189.4,-138.6 2044.3,-1219.1 1905.8,-2408.5 -53.4,-458.2 -246.2,-879.3 -557.5,-1217.8"
         style="fill:#000072;fill-opacity:1;fill-rule:nonzero;stroke:none"
         id="path126" />
      <path
         d="m 14321.9,25901.7 c 81.1,48 166.5,81.4 252.7,112.5 86.4,30.2 174.4,54.2 263.2,73.9 177.6,39.4 358.8,57.9 540.2,65.2 362.9,17.2 730,0.1 1091,-66.7 180.4,-32.5 359.5,-75.7 534.3,-133.5 175.5,-55.5 346.9,-124.7 512.5,-205.6 165.9,-79.9 328.7,-168.4 476.6,-278.7 36.9,-27.8 72.9,-56.5 108.4,-85.6 34.2,-31.4 67.9,-62.8 100.2,-95.8 l 48.3,-49.4 c 15.3,-17.2 29.7,-35.8 44.4,-53.6 29.3,-35.8 57.2,-73 83,-111.7 15.6,-23.4 9.3,-54.9 -14.1,-70.5 -14.7,-9.8 -32.6,-10.9 -47.8,-4.5 l -2.3,0.9 c -168.1,72.1 -315.3,159 -469,235.5 l -56.1,30.5 -57.2,28.8 -112.9,59.2 c -77,36.2 -152.7,74.5 -232,105.7 -77.7,34.4 -158.4,61.9 -238,91.3 -81.3,25.3 -161.1,54.3 -243.6,75.8 -81.5,24.3 -164.6,43.4 -247.2,64.4 -83.3,17.8 -166.5,36.4 -250.7,51.3 -335.7,62.5 -678.7,95.2 -1023.8,104.8 -346.1,3.9 -689.6,-0.3 -1054.3,31.5 -7.2,0.5 -12.7,6.8 -12.2,14 0.3,4.3 3,8.2 6.4,10.3"
         style="fill:#000072;fill-opacity:1;fill-rule:nonzero;stroke:none"
         id="path128" />
      <path
         d="m 18112.3,26829.4 c -33.3,-285.9 -292.1,-490.6 -577.9,-457.3 -286,33.3 -490.6,292.1 -457.3,577.9 33.3,285.9 292,490.6 577.8,457.3 285.9,-33.3 490.7,-292 457.4,-577.9"
         style="fill:#ffffff;fill-opacity:1;fill-rule:nonzero;stroke:none"
         id="path130" />
      <path
         d="m 16423.6,26552 c -25.6,-219.4 -224.2,-376.6 -443.7,-351 -219.4,25.5 -376.5,224.2 -351,443.6 25.6,219.5 224.2,376.6 443.6,351 219.4,-25.5 376.6,-224.1 351.1,-443.6"
         style="fill:#ffffff;fill-opacity:1;fill-rule:nonzero;stroke:none"
         id="path132" />
      <path
         d="m 22130.6,25099.9 c -80.4,258.8 -109.3,538.2 -75.9,824.7 128,1098.3 1122.1,1884.9 2220.4,1757 1098.4,-128.1 1885,-1122.2 1757,-2220.5 -50.8,-435.8 -238,-822.5 -513.9,-1122.5 0,0 -653.3,591.7 -1824.5,728.2 -1171.2,136.4 -1563.1,33.1 -1563.1,33.1"
         style="fill:#ffffff;fill-opacity:1;fill-rule:nonzero;stroke:none"
         id="path134" />
      <path
         d="m 25700.9,25700.7 c -55.2,-473.5 -383,-848.6 -808.9,-986.3 -425.3,201 -863.5,314.1 -1274.6,372.2 -197.6,238.8 -300.8,554.9 -262.1,887.4 75.5,648.2 661.9,1112.2 1309.5,1036.7 647.6,-75.5 1111.6,-661.8 1036.1,-1310"
         style="fill:#000072;fill-opacity:1;fill-rule:nonzero;stroke:none"
         id="path136" />
      <path
         d="m 25643.1,24223.7 -249.7,229.7 c 262.5,285.5 425.1,640.7 470.2,1027.4 116.9,1003.6 -604.5,1915.3 -1608.1,2032.3 -1004,116.7 -1915.3,-604.5 -2032.3,-1608.1 -29.9,-256.5 -6.6,-510.4 69.4,-754.8 l -324.1,-100.6 c -90,289.9 -117.7,590.9 -82.3,894.6 138.6,1189.5 1219.3,2044.4 2408.6,1905.8 1189.4,-138.6 2044.4,-1219.1 1905.8,-2408.5 -53.4,-458.2 -246.2,-879.3 -557.5,-1217.8"
         style="fill:#000072;fill-opacity:1;fill-rule:nonzero;stroke:none"
         id="path138" />
      <path
         d="m 21697.9,25042.3 c 81.1,47.9 166.4,81.3 252.7,112.4 86.4,30.3 174.3,54.2 263.1,73.9 177.7,39.5 358.8,57.9 540.4,65.3 362.8,17.1 729.9,0 1090.8,-66.7 180.5,-32.6 359.6,-75.8 534.4,-133.6 175.5,-55.5 346.9,-124.7 512.6,-205.5 165.7,-80 328.6,-168.5 476.5,-278.7 36.9,-27.9 72.9,-56.6 108.5,-85.7 34,-31.3 67.8,-62.8 100.1,-95.8 l 48.2,-49.3 c 15.5,-17.3 29.7,-35.9 44.5,-53.7 29.4,-35.8 57.1,-73 83,-111.7 15.6,-23.3 9.3,-54.8 -14,-70.4 -14.7,-9.9 -32.8,-11 -48,-4.6 l -2.2,1 c -168.2,72 -315.3,158.9 -469,235.4 l -56.1,30.5 -57.2,28.8 -112.9,59.2 c -77,36.3 -152.8,74.6 -232,105.7 -77.6,34.5 -158.4,62 -238,91.3 -81.3,25.3 -161.1,54.3 -243.6,75.9 -81.5,24.2 -164.6,43.4 -247.2,64.3 -83.3,17.9 -166.5,36.5 -250.6,51.3 -335.8,62.5 -678.8,95.3 -1024,104.8 -346,3.9 -689.5,-0.3 -1054.3,31.6 -7.1,0.5 -12.6,6.7 -12.1,13.9 0.4,4.4 3,8.2 6.4,10.4"
         style="fill:#000072;fill-opacity:1;fill-rule:nonzero;stroke:none"
         id="path140" />
      <path
         d="m 25488.3,25969.9 c -33.4,-285.8 -292.1,-490.6 -578,-457.2 -285.9,33.2 -490.6,292 -457.2,577.9 33.3,285.8 292,490.5 577.9,457.3 285.8,-33.4 490.6,-292.1 457.3,-578"
         style="fill:#ffffff;fill-opacity:1;fill-rule:nonzero;stroke:none"
         id="path142" />
      <path
         d="m 23799.6,25692.6 c -25.6,-219.5 -224.2,-376.7 -443.7,-351.1 -219.4,25.6 -376.6,224.2 -351,443.6 25.6,219.5 224.1,376.6 443.6,351.1 219.5,-25.6 376.6,-224.2 351.1,-443.6"
         style="fill:#ffffff;fill-opacity:1;fill-rule:nonzero;stroke:none"
         id="path144" />
      <path
         d="m 17140.2,31755.8 c -633.7,-374.8 -2006.7,-1164.4 -3146.4,-2561.6 -88.5,-108.6 -264.2,-45.7 -263.3,94.3 6.4,974.3 137.8,3366.2 1225.8,4489.6 129.3,133.6 326.2,176.2 500,110.1 377,-143.5 1188.1,-452.4 1820.2,-1635 94.2,-176.4 35.8,-395.6 -136.3,-497.4"
         style="fill:#f17e80;fill-opacity:1;fill-rule:nonzero;stroke:none"
         id="path146" />
      <path
         d="m 24730,30871.4 c 530.6,-510.5 1685.3,-1594.5 2473.2,-3216.4 61.1,-126 246.5,-105.2 277.9,31.3 217.8,949.6 639.8,3307.6 -160.7,4651.1 -95.2,159.8 -277,246.5 -461.3,222.1 -399.9,-52.9 -1260.2,-167.1 -2147.3,-1172.7 -132.4,-150 -125.9,-376.7 18.2,-515.4"
         style="fill:#f17e80;fill-opacity:1;fill-rule:nonzero;stroke:none"
         id="path148" />
      <path
         d="m 15289.3,33769 c -83.6,0 -165.2,-33.2 -225.2,-95.2 -1049.4,-1083.6 -1177.3,-3428.4 -1183.6,-4386.3 1121.1,1379.5 2476,2179.7 3127.2,2564.3 l 56.1,33.1 c 102,60.3 137.3,191.1 80.4,297.6 -606,1133.6 -1372.8,1425.3 -1741.3,1565.5 -37,14.1 -75.5,21 -113.6,21 z m -1409,-4780.1 c -34.1,0 -68.7,5.9 -102.7,18.1 -120.5,43.4 -197.9,154.2 -197.1,282.4 6.6,994.1 143.2,3431.5 1268,4593.1 170.9,176.4 430.3,233.6 661.1,145.9 371.1,-141.2 1240.3,-471.8 1899.2,-1704.5 132.8,-248.6 48.4,-554.9 -192.3,-697.2 l -56.3,-33.3 c -636.1,-375.7 -1960,-1157.5 -3050.1,-2494 -58.4,-71.6 -142.4,-110.5 -229.8,-110.5"
         style="fill:#000072;fill-opacity:1;fill-rule:nonzero;stroke:none"
         id="path150" />
      <path
         d="m 26921,32413.6 c -14,0 -28,-0.9 -42.1,-2.8 -390.9,-51.7 -1204.3,-159.2 -2054.6,-1123.2 -80,-90.6 -75.7,-225.9 9.7,-308.1 v 0 l 46.9,-45 c 545.3,-524 1680.1,-1614.3 2457.2,-3213.9 210.9,932.7 625.6,3244 -146.6,4540.1 -57,95.7 -160.1,152.9 -270.5,152.9 z m 414.3,-4992.4 c -113.8,0 -216.2,63.5 -267.1,168.3 -753.7,1551.5 -1862.3,2616.7 -2395.2,3128.7 l -47,45.1 c -201.5,193.9 -213.2,511.4 -26.7,722.8 924.6,1048.1 1846.5,1170.1 2240.2,1222.1 244.1,32.5 484.1,-83 609.8,-294 827.7,-1389.4 400.2,-3792.7 178,-4761.5 -28.7,-125 -129.6,-215.1 -256.9,-229.5 -11.8,-1.3 -23.5,-2 -35.1,-2"
         style="fill:#000072;fill-opacity:1;fill-rule:nonzero;stroke:none"
         id="path152" />
      <path
         d="m 15978.3,21453.2 c 353.3,-198 716.8,-370.1 1085.7,-524.7 368.4,-155.7 744.5,-289.7 1126.3,-401.3 381.8,-111.1 770.9,-195.6 1163.8,-248.6 392.9,-51.2 788.7,-75.9 1183.6,-68.4 789.8,15.2 1575.2,153.7 2321.8,409.6 l 278.2,101.4 c 93.6,31.1 182.4,75.3 274.1,111.9 90.6,39.2 183,74.3 272.3,116.8 l 266.5,130.1 133.3,65 129.6,72.4 259.3,144.9 c 170.8,100.2 337.3,208.5 506.3,312.2 l 10.2,6.2 c 93.1,57.1 214.9,27.9 272,-65.1 56.3,-91.7 28.6,-211.4 -61.2,-269.6 l -259.9,-168 c -87.5,-54.7 -171.5,-115.1 -262.5,-164.2 l -270.2,-152 -135.3,-75.9 -139.2,-68.5 -278.7,-136.9 c -93.3,-44.7 -190.2,-82.1 -285.1,-123.4 -189,-85.3 -386.9,-148.6 -582.4,-217.7 -395.2,-124.7 -797.2,-232.9 -1207.9,-294.2 l -153.4,-26 -154.6,-17.8 c -103.2,-10.7 -205.9,-26.2 -309.4,-32.7 l -310.7,-17.2 c -67.1,-3 -134.3,-2.9 -201.5,-2.9 -36.5,0.1 -72.9,0.1 -109.3,-0.4 -414.2,3.8 -828.1,36.4 -1235.6,105.5 -407.5,69.1 -808.4,170.6 -1199.6,299 -391.1,128.3 -771.1,289.7 -1132.1,485 -180.9,96.6 -356.1,203.8 -525.9,318.1 -168.9,115.9 -333.9,237.1 -483.8,377.4 -5.1,4.8 -5.4,12.8 -0.6,17.9 4.1,4.3 10.4,5.2 15.4,2.4 l 0.5,-0.3"
         style="fill:#000072;fill-opacity:1;fill-rule:nonzero;stroke:none"
         id="path154" />
      <path
         d="m 13133.1,25243.7 c 0,0 -577.3,-249.3 -1120.1,-603.3 -1.7,214.8 9.1,424.2 28,625.8 290.3,53.8 658.1,68.5 1092.1,-22.5"
         style="fill:#cc6633;fill-opacity:1;fill-rule:nonzero;stroke:none"
         id="path156" />
      <path
         d="m 13522.9,23771.6 c 0,0 -695.4,-300.5 -1277.1,-709.7 -65.9,215.5 -116,430.8 -152.7,643.4 316.1,108.9 804.7,197.8 1429.8,66.3"
         style="fill:#cc6633;fill-opacity:1;fill-rule:nonzero;stroke:none"
         id="path158" />
      <path
         d="m 27132.4,23612.5 c 0,0 504.6,-375.3 951.5,-844.8 51,208.8 88.7,415 116.6,615.5 -270.2,119.2 -624.7,218 -1068.1,229.3"
         style="fill:#cc6633;fill-opacity:1;fill-rule:nonzero;stroke:none"
         id="path160" />
      <path
         d="m 26414.6,22269.4 c 0,0 607.7,-452.2 1079.7,-984.3 113.8,194.6 212,392.6 296.6,591.1 -282.6,178.7 -737.6,377.5 -1376.3,393.2"
         style="fill:#cc6633;fill-opacity:1;fill-rule:nonzero;stroke:none"
         id="path162" />
      <path
         d="m 20890.6,18350.4 c -716.3,0 -1431.3,61.2 -2136.5,182.7 v 0 c 705.3,-121.5 1420.1,-182.7 2136.5,-182.7 37,0 74,0.2 111,0.5 h -0.1 c -36.9,-0.4 -73.9,-0.5 -110.9,-0.5"
         style="fill:#8b5649;fill-opacity:1;fill-rule:nonzero;stroke:none"
         id="path164" />
      <path
         d="m 25342.4,19285.8 h -0.1 c 980,507.4 1642.6,1174.7 2085.6,1889.3 -443,-714.5 -1105.7,-1382 -2085.5,-1889.3"
         style="fill:#9ebfd3;fill-opacity:1;fill-rule:nonzero;stroke:none"
         id="path166" />
      <path
         d="m 23645,18664.5 v 0 c 267,65.2 519.4,139.4 757.2,221.3 v 0 c -237.9,-82 -490,-156.1 -757.2,-221.3"
         style="fill:#b9733b;fill-opacity:1;fill-rule:nonzero;stroke:none"
         id="path168" />
      <path
         d="m 24402.2,18885.8 v 0 c 119.5,41.2 235.5,84.4 348,129.5 v 0 c -112.5,-45.1 -228.4,-88.3 -348,-129.5"
         style="fill:#bda19b;fill-opacity:1;fill-rule:nonzero;stroke:none"
         id="path170" />
      <path
         d="m 24750.2,19015.3 v 0 c 209.4,84 406.2,174.3 592.1,270.5 h 0.1 c -185.7,-96.1 -383.1,-186.6 -592.2,-270.5"
         style="fill:#000072;fill-opacity:1;fill-rule:nonzero;stroke:none"
         id="path172" />
      <path
         d="m 14597.2,20084.4 c -1338.3,877.5 -2031.8,1935.2 -2351.4,2977.4 -29.4,96.2 -55.7,192.3 -79,288.1 23.3,-95.8 49.6,-191.9 79,-288 v 0 0 c 319.7,-1042.3 1013.1,-2100 2351.4,-2977.5 m 12831,1091.1 c 0.5,0.8 0.8,1.3 1.3,2.1 -0.5,-0.8 -0.8,-1.3 -1.3,-2.1 m 1.7,2.8 c 1.3,2.1 2.6,4.2 3.9,6.3 -1.3,-2.1 -2.5,-4.1 -3.9,-6.3 m 4.6,7.4 c 0.3,0.6 0.6,0.9 0.9,1.6 -0.3,-0.6 -0.6,-1.1 -0.9,-1.6 m 1.8,3 c 0.4,0.6 0.5,0.8 0.9,1.4 -0.2,-0.4 -0.6,-1 -0.9,-1.4 m 2.4,3.8 c 0.1,0.2 0.1,0.2 0.2,0.4 -0.1,-0.1 -0.1,-0.2 -0.2,-0.4 m 1.9,3.2 c 0.3,0.4 0.5,0.8 0.8,1.2 -0.3,-0.4 -0.5,-0.8 -0.8,-1.2 m 2,3.2 c 0.2,0.4 0.3,0.5 0.6,0.9 -0.2,-0.2 -0.5,-0.6 -0.6,-0.9 m 2.1,3.5 c 0.1,0.2 0.1,0.1 0.2,0.3 0,-0.1 -0.1,-0.2 -0.2,-0.3 m 2.1,3.4 0.3,0.5 c -0.1,-0.2 -0.2,-0.3 -0.3,-0.5 m 1.8,3 c 0.3,0.4 0.3,0.4 0.6,0.9 -0.2,-0.3 -0.4,-0.6 -0.6,-0.9 m 2.2,3.6 0.1,0.1 -0.1,-0.1 m 4,6.5 c 0.1,0.2 0,0.1 0.1,0.3 l -0.1,-0.3 m 1.9,3.2 c 0.2,0.2 0,0.1 0.2,0.3 l -0.2,-0.3 m -15313.3,2228.5 c -19,85.2 -35.7,170.2 -50.3,254.8 -16,93.5 -29.4,186.7 -40.4,279.2 11,-92.6 24.4,-185.7 40.4,-279.3 v 0 0 c 11,-63.9 23.3,-128.1 36.8,-192.4 4.3,-20.8 8.8,-41.5 13.5,-62.3 m -121.5,889.7 c -5.6,101.1 -8.5,201.2 -8.9,300.1 -1.2,147.2 3.5,291.9 12.7,433.4 -2.9,-45.3 -5.4,-90.8 -7.4,-136.7 -2.3,-53.1 -3.9,-106.6 -4.7,-160.4 -0.7,-45.2 -0.9,-90.6 -0.6,-136.3 v 0 c 0.4,-98.9 3.3,-199 8.9,-300.1"
         style="fill:#9ebfd3;fill-opacity:1;fill-rule:nonzero;stroke:none"
         id="path174" />
      <path
         d="m 18285.6,18623 c -76.3,16.2 -152.7,33.1 -228.8,50.7 76.2,-17.6 152.4,-34.5 228.8,-50.7 v 0"
         style="fill:#8585bb;fill-opacity:1;fill-rule:nonzero;stroke:none"
         id="path176" />
      <path
         d="m 21476.1,18364 v 0 c 240.8,11.3 481.8,29.5 722.2,54.6 379.5,39.8 735.9,94.3 1070.3,162 h 0.1 c -334.6,-67.7 -690.8,-122.2 -1070.4,-162 -240.5,-25.2 -481.3,-43.4 -722.2,-54.6"
         style="fill:#8585bb;fill-opacity:1;fill-rule:nonzero;stroke:none"
         id="path178" />
      <path
         d="m 21001.5,18350.9 h 0.1 c 158.1,1.4 316.3,5.8 474.5,13.1 v 0 c -158.2,-7.4 -316.4,-11.7 -474.6,-13.1 m -2247.4,182.2 c -156.7,27 -312.8,57 -468.5,89.9 v 0 c 155.6,-32.9 311.9,-62.9 468.5,-89.9 v 0 m 4514.6,47.5 h -0.1 c 128.7,26.1 254.1,54.1 376.4,83.9 v 0 c -122.2,-29.9 -247.7,-57.8 -376.3,-83.9"
         style="fill:#000072;fill-opacity:1;fill-rule:nonzero;stroke:none"
         id="path180" />
      <path
         d="m 20890.6,18350.4 c -716.4,0 -1431.2,61.2 -2136.5,182.7 -156.6,27 -312.9,57 -468.5,89.9 -76.4,16.2 -152.6,33.1 -228.8,50.7 -444.3,102.7 -883.6,229.7 -1315.8,380.9 -852.6,298.1 -1559.6,646.7 -2143.8,1029.8 -1338.3,877.5 -2031.7,1935.2 -2351.4,2977.5 117.1,82.3 238.8,160.3 358.4,232.3 597.4,-1279.4 1844.8,-2520.9 4246.6,-3360.8 1335.9,-467 2739.8,-704.1 4149.7,-704.1 435.8,0 872.5,22.7 1307.6,68.2 2525.1,264.6 4023.6,1182.7 4899.8,2287.3 96.9,-95 194.2,-195.8 286.3,-299.6 -12.3,-21.1 -24.6,-41.8 -37.3,-62.8 -0.2,-0.2 0,-0.1 -0.2,-0.3 -0.6,-1.1 -1.1,-1.8 -1.8,-2.9 -0.1,-0.2 0,-0.1 -0.1,-0.3 -1.3,-2.1 -2.6,-4.2 -3.9,-6.4 l -0.1,-0.1 c -0.6,-1 -1.1,-1.8 -1.6,-2.7 -0.3,-0.5 -0.3,-0.5 -0.6,-0.9 -0.5,-0.8 -1,-1.7 -1.5,-2.5 l -0.3,-0.5 c -0.6,-1.1 -1.2,-2 -1.9,-3.1 -0.1,-0.2 -0.1,-0.1 -0.2,-0.3 -0.5,-0.9 -1,-1.8 -1.5,-2.6 -0.3,-0.4 -0.4,-0.5 -0.6,-0.9 -0.4,-0.7 -0.8,-1.3 -1.2,-2 -0.3,-0.4 -0.5,-0.8 -0.8,-1.2 -0.5,-0.9 -1.1,-1.8 -1.7,-2.8 -0.1,-0.2 -0.1,-0.2 -0.2,-0.4 -0.5,-0.8 -1,-1.5 -1.5,-2.4 -0.4,-0.6 -0.5,-0.8 -0.9,-1.4 -0.3,-0.6 -0.5,-0.9 -0.9,-1.4 -0.3,-0.7 -0.6,-1 -0.9,-1.6 -0.2,-0.3 -0.5,-0.8 -0.7,-1.1 -1.3,-2.1 -2.6,-4.2 -3.9,-6.3 -0.1,-0.1 -0.3,-0.6 -0.4,-0.7 -0.5,-0.8 -0.8,-1.3 -1.3,-2.1 -0.1,-0.2 -0.2,-0.3 -0.3,-0.4 -443,-714.6 -1105.6,-1381.9 -2085.6,-1889.3 -185.9,-96.2 -382.7,-186.5 -592.1,-270.5 -112.5,-45.1 -228.5,-88.3 -348,-129.5 -237.8,-81.9 -490.2,-156.1 -757.2,-221.3 -122.3,-29.8 -247.7,-57.8 -376.4,-83.9 -334.4,-67.7 -690.8,-122.2 -1070.3,-162 -240.4,-25.1 -481.4,-43.3 -722.2,-54.6 -158.2,-7.3 -316.4,-11.7 -474.5,-13.1 -37,-0.3 -74,-0.5 -111,-0.5 m -8644.8,4711.5 c -29.4,96.1 -55.7,192.2 -79,288 -8.2,33.6 -16,67.2 -23.4,100.7 -4.7,20.8 -9.2,41.5 -13.5,62.3 31.4,-149.7 69.8,-300.3 115.9,-451 m -152.7,643.4 v 0 c -16,93.6 -29.4,186.7 -40.4,279.3 -14.2,119.7 -24.3,238.4 -30.8,355.7 -5.6,101.1 -8.5,201.2 -8.9,300.1 54.9,35.7 110.1,70.5 165,103.9 7.5,-53.2 15.8,-106.5 24.9,-160 36.8,-212.7 86.8,-428 152.8,-643.5 15.5,-50.5 31.9,-101.2 49.2,-151.8 -117.4,-23.2 -221.6,-52.6 -311.8,-83.7 m -79.5,1071.4 c 0.8,53.8 2.4,107.3 4.7,160.4 -2.3,-53.1 -3.9,-106.6 -4.7,-160.4 m 27.4,489.5 c 21.4,230.7 54,450.8 93.2,657.9 -8,-132.4 -12.4,-267.3 -11.3,-404.8 0.3,-78.8 2.2,-158.3 5.7,-238.4 -29.9,-4.5 -59.1,-9.4 -87.6,-14.7"
         style="fill:#b9733b;fill-opacity:1;fill-rule:nonzero;stroke:none"
         id="path182" />
      <path
         d="m 12013,24640.4 c -0.3,45.7 -0.1,91.1 0.6,136.3 0.8,53.8 2.4,107.3 4.7,160.4 2,45.9 4.5,91.4 7.4,136.7 4.2,64.8 9.3,129 15.3,192.4 v 0 c 28.5,5.3 57.7,10.2 87.6,14.7 7.9,-176.1 23.9,-355.3 49.4,-536.6 -54.9,-33.4 -110.1,-68.2 -165,-103.9 v 0"
         style="fill:#994c43;fill-opacity:1;fill-rule:nonzero;stroke:none"
         id="path184" />
      <path
         d="m 12245.8,23061.9 v 0 c -46.1,150.7 -84.5,301.3 -115.9,451 -13.5,64.3 -25.8,128.5 -36.8,192.4 v 0 c 90.2,31.1 194.4,60.5 311.8,83.7 56.4,-165.1 122.5,-330.2 199.3,-494.8 -119.6,-72 -241.3,-150 -358.4,-232.3 v 0"
         style="fill:#994c43;fill-opacity:1;fill-rule:nonzero;stroke:none"
         id="path186" />
      <path
         d="m 27790.8,21876.3 c -77.6,49 -168.2,99.6 -272,147.5 179.7,285.3 324.1,578.6 439.3,872.2 42.1,-41.8 84.2,-84.6 125.8,-128.3 11,45.3 21.5,90.4 31.3,135.4 -73.5,-337 -178.2,-683 -324.4,-1026.8 m 356.7,1184.4 c 20.7,108.8 38.2,216.5 53,322.5 -22.2,9.8 -45,19.5 -68.3,29 49.7,174.4 90.3,347.6 123.2,517.9 -16.6,-275 -50.1,-567.7 -107.9,-869.4"
         style="fill:#b9733b;fill-opacity:1;fill-rule:nonzero;stroke:none"
         id="path188" />
      <path
         d="m 28083.9,22767.7 c -41.6,43.7 -83.7,86.5 -125.8,128.3 67.7,172.4 125.2,344.9 174.1,516.2 23.3,-9.5 46.1,-19.2 68.3,-29 -14.8,-106 -32.3,-213.7 -53,-322.5 -10,-52.3 -20.8,-104.8 -32.3,-157.6 -9.8,-45 -20.3,-90.1 -31.3,-135.4"
         style="fill:#994c43;fill-opacity:1;fill-rule:nonzero;stroke:none"
         id="path190" />
      <path
         d="m 27494.2,21285.2 c -92.1,103.8 -189.4,204.6 -286.3,299.6 113.9,143.6 217.2,290.1 310.9,439 103.8,-47.9 194.4,-98.5 272,-147.5 -84.3,-198.5 -182.7,-396.5 -296.6,-591.1"
         style="fill:#994c43;fill-opacity:1;fill-rule:nonzero;stroke:none"
         id="path192" />
      <path
         d="m 25089.5,21510.1 c 0,0 -1108.5,-820.1 -2594,-1212.3 0,0 -654.2,1171.7 -510.8,2232.9 66.5,489.5 301.6,954.8 849.3,1271.7 1144.7,662.5 2145.1,-391.6 2361.5,-1357.9 79.1,-352.1 53.8,-692.6 -106,-934.4"
         style="fill:#eb617d;fill-opacity:1;fill-rule:nonzero;stroke:none"
         id="path194" />
      <path
         d="m 22495.5,20297.8 c 0,0 -531.5,951.9 -531.3,1916.9 0,91.2 4.7,182.5 15.1,273.2 -18.8,-164.8 -18.8,-331.8 -5.7,-496.3 3,33.3 6.6,66.6 11.1,99.7 15,110.8 38.7,220.4 72.7,327.2 290.2,-431.6 801.9,-1005.4 1491.1,-1005.4 445.6,0 965.3,239.7 1547.4,912.8 42.2,-106.4 75.6,-214.1 99.5,-320.8 10.9,-48.1 19.5,-95.9 26.4,-143.4 30,179.2 19.5,379 -26.4,582.8 0.1,0.1 0,-0.1 0.1,0 28.4,-126.5 43.3,-251.6 43.4,-371.1 0.1,-213 -47.1,-408.4 -149.4,-563.3 0,0 -1108.5,-820.1 -2594,-1212.3"
         style="fill:#b0497a;fill-opacity:1;fill-rule:nonzero;stroke:none"
         id="path196" />
      <path
         d="m 21979.3,22487.9 c 1.7,14.3 3.5,28.6 5.4,42.9 66.5,489.4 301.6,954.7 849.3,1271.7 249.5,144.3 492,207.2 721.1,207.2 52.2,0 103.8,-3.3 154.5,-9.6 -50.7,6.3 -102.2,9.5 -154.4,9.5 -229.1,0 -471.8,-62.8 -721.2,-207.2 -547.7,-316.9 -782.8,-782.2 -849.3,-1271.7 -1.9,-14.2 -3.7,-28.6 -5.4,-42.8"
         style="fill:#fcd7a9;fill-opacity:1;fill-rule:nonzero;stroke:none"
         id="path198" />
      <path
         d="m 25095.9,22325.9 c -256.4,647.3 -834.5,1244.3 -1540.8,1244.3 -229.1,0 -471.7,-62.9 -721.1,-207.2 -423.8,-245.2 -660.4,-579.2 -776.6,-944.5 -26,38.7 -50.3,76.3 -72.7,112.2 -1.9,-14.2 -3.7,-28.6 -5.4,-42.8 v 0 c 1.7,14.2 3.5,28.6 5.4,42.8 66.5,489.5 301.6,954.8 849.3,1271.7 249.4,144.4 492.1,207.2 721.2,207.2 52.2,0 103.7,-3.2 154.4,-9.5 748.3,-93 1327.3,-847.9 1485.8,-1555.6 v 0 c -33.2,-40.8 -66.6,-80.6 -99.5,-118.6"
         style="fill:#f7c0cb;fill-opacity:1;fill-rule:nonzero;stroke:none"
         id="path200" />
      <path
         d="m 25221.8,21861.7 c -6.9,47.5 -15.5,95.3 -26.4,143.4 -23.9,106.7 -57.3,214.4 -99.5,320.8 32.9,38 66.3,77.8 99.5,118.6 45.9,-203.8 56.4,-403.6 26.4,-582.8 m -3248.2,129.9 c -13.1,164.5 -13.1,331.5 5.7,496.3 1.7,14.2 3.5,28.6 5.4,42.8 22.4,-35.9 46.7,-73.5 72.7,-112.2 -34,-106.8 -57.7,-216.4 -72.7,-327.2 -4.5,-33.1 -8.1,-66.4 -11.1,-99.7"
         style="fill:#dfb6ca;fill-opacity:1;fill-rule:nonzero;stroke:none"
         id="path202" />
      <path
         d="m 23803.5,20875.8 c -0.2,69 0.7,151.6 -3.4,228.4 -3.8,78.2 -7.2,156.8 -13.7,235.3 -11.7,157 -31.4,313.5 -58.5,469 -26.4,156 -68.5,307.5 -113.3,460.5 -46.2,153 -108.8,299.4 -176.4,453.3 l -0.5,1.1 c -4.9,11.1 0.1,24 11.2,28.9 7.9,3.4 16.7,1.9 23,-3.3 130.2,-109.8 243.3,-244.1 333.7,-391.6 89.9,-147.7 162.6,-306.5 218.7,-469.9 56.5,-163.4 99.6,-331.2 129.9,-501.1 14.1,-85.2 27.3,-170.6 33.9,-257 3.9,-43.1 6.9,-86.5 9.1,-130.1 2.5,-44.5 3,-85.6 2,-135.7 -2.2,-109.2 -92.6,-196 -201.8,-193.8 -107.6,2.2 -193.5,89.8 -193.9,196.9 v 9.1"
         style="fill:#000072;fill-opacity:1;fill-rule:nonzero;stroke:none"
         id="path204" />
      <path
         d="m 23557.1,23812.8 c -189.3,0 -398.5,-51.2 -624.3,-181.8 -1328.8,-768.4 -580.8,-2585.3 -334,-3099.2 1223.8,354 2167.7,992.7 2343.7,1116.6 237.4,408.7 33.9,1194.8 -449,1708 -185.4,197.1 -510.5,456.4 -936.4,456.4 z m -1061.6,-3712.9 c -70.4,0 -137.2,37.7 -172.8,101.5 -14.9,26.7 -366.9,663.4 -503.5,1438.2 -188.8,1071.5 127.8,1878.6 915.5,2334.1 698.2,403.8 1463.5,274.3 2047.1,-346.1 630.4,-669.9 842.5,-1668.8 472.8,-2226.7 -12.7,-19.2 -28.7,-36 -47.2,-49.7 -46.5,-34.5 -1156.3,-847.4 -2661.3,-1244.7 -16.8,-4.4 -33.8,-6.6 -50.6,-6.6"
         style="fill:#000072;fill-opacity:1;fill-rule:nonzero;stroke:none"
         id="path206" />
      <path
         d="m 21308.8,24801.9 c -133.8,375.8 -1074.2,500.5 -1074.2,500.5 0,0 -943.7,94.8 -1160.4,-240.2 -216.5,-334.9 357.1,-873.6 1017.6,-986 668.6,-42.4 1350.7,349.9 1217,725.7"
         style="fill:#000072;fill-opacity:1;fill-rule:nonzero;stroke:none"
         id="path208" />
      <path
         d="m 20479.6,24888.8 c -85.6,0 -183.5,5.7 -287.1,17.8 -323.4,37.7 -579.2,122.8 -571.4,190.2 5.3,45.9 131.1,71.7 312.6,71.7 85.6,0 183.6,-5.8 287.3,-17.9 323.4,-37.6 579.1,-122.8 571.3,-190.2 -5.3,-45.8 -131.1,-71.6 -312.7,-71.6"
         style="fill:#9999c7;fill-opacity:1;fill-rule:nonzero;stroke:none"
         id="path210" />
      <path
         d="m 23207.2,31865.4 c -70.8,28.6 -142.8,55.9 -215.7,82 72.9,-26.1 144.9,-53.4 215.6,-82 0,0 1847.9,1851 3614.6,1851 197.9,0 394.7,-23.2 587.8,-74.8 71.2,-19.2 139.8,-44.7 205.1,-76.2 -65.3,31.5 -133.9,57 -205.1,76.1 -193.2,51.7 -389.8,74.9 -587.8,74.9 -1766.6,0 -3614.5,-1851 -3614.5,-1851 m -3803.4,566.2 c 0.3,0 0.6,0.1 0.9,0.1 -0.3,0 -0.6,-0.1 -0.9,-0.1 m 1.4,0.1 c 157.8,10.2 314.2,15.5 464.1,17.4 -150,-1.9 -306.3,-7.2 -464.1,-17.4 m 8774.7,573.7 c -4.1,7.8 -8.2,15.6 -12.3,23.3 4.1,-7.7 8.2,-15.4 12.3,-23.3 m -13841.7,1691.8 c 168.2,172.8 382.2,293.1 615.2,343.9 -233,-50.9 -447,-171 -615.2,-343.9"
         style="fill:#edfffb;fill-opacity:1;fill-rule:nonzero;stroke:none"
         id="path212" />
      <path
         d="m 22212.8,31216.5 c -55.2,3.7 -111.8,10.3 -169.3,19.9 -57.4,9.5 -113,21.6 -166.5,36 42.1,24.2 88.6,36.9 135.2,36.9 60.7,0 121.6,-21.6 172.9,-67.4 9.3,-8.2 18.5,-16.7 27.7,-25.4 m 1258.3,211.3 c -114.6,280.2 -236.3,436.9 -236.3,436.9 l -62.7,-21.1 c 0,0 -442.4,203.7 -1122.6,374.1 296.2,-68.2 626.4,-157.4 942,-270.3 72.9,-26.1 144.9,-53.4 215.7,-82 0,0 1847.9,1851 3614.5,1851 198,0 394.6,-23.2 587.8,-74.9 71.2,-19.1 139.8,-44.6 205.1,-76.1 234,-112.3 427,-299.4 550.7,-532.3 0.8,-1.4 1.5,-2.9 2.3,-4.4 4.1,-7.7 8.2,-15.5 12.3,-23.3 15.7,-30.2 31.8,-62 48.3,-95.3 -133.7,104.9 -287.6,183.8 -455.2,228.8 -206.1,55.1 -416,79.8 -627.2,79.8 -1468.8,0 -2990.4,-1199 -3590.9,-1728.7 -26.4,-23.3 -54.5,-44.1 -83.8,-62.2 m -4973.8,585.5 c -21.9,22.6 -42.2,46.9 -60.7,73.1 -522.2,737.9 -1990.5,2575.5 -3659.9,2575.5 -22,0 -44.1,-0.3 -66.1,-1 -180.1,-5.4 -354.5,-49.5 -513.5,-126.1 33.6,40.8 66.2,79.7 96.9,114.6 14.4,16.4 29.1,32.3 44.2,47.8 168.2,172.9 382.2,293 615.2,343.9 70.5,15.4 142.7,24.4 216,26.7 20.8,0.6 41.3,0.9 62,0.9 1957.1,0 3619.3,-2695.7 3619.3,-2695.7 181.1,27.9 368.1,46.6 553.1,58.6 0.3,0 0.6,0.1 0.9,0.1 0.2,0 0.3,0 0.5,0 157.8,10.2 314.1,15.5 464.1,17.4 43.4,0.5 86.1,0.8 128.2,0.8 20.9,0 41.7,-0.1 62.2,-0.2 -701.9,-9.4 -1179.8,-106 -1179.8,-106 l -56.1,35 c 0,0 -152.3,-122.7 -326.5,-365.4"
         style="fill:#fcd7a9;fill-opacity:1;fill-rule:nonzero;stroke:none"
         id="path214" />
      <path
         d="m 22323,31212.7 c -36,0 -72.8,1.2 -110.2,3.8 -9.2,8.7 -18.4,17.2 -27.7,25.4 -51.3,45.8 -112.2,67.4 -172.9,67.4 -46.6,0 -93.1,-12.7 -135.2,-36.9 -369.5,99 -634.2,304.4 -646.4,506.9 -145.3,23.1 -231.9,34 -231.9,34 0,0 -498.3,53.9 -1135.6,53.9 -272,0 -569.5,-9.9 -864.2,-37.9 -19.7,-1.8 -39.4,-2.8 -59,-2.8 -167.3,0 -326.9,67.6 -442.6,186.8 174.2,242.7 326.5,365.4 326.5,365.4 l 56.1,-35 c 0,0 477.9,96.6 1179.8,106 567,-3.3 1001.9,-50.3 1001.9,-50.3 0,0 434.7,-54.3 987.9,-181.7 680.2,-170.4 1122.6,-374.1 1122.6,-374.1 l 62.7,21.1 c 0,0 121.7,-156.7 236.3,-436.9 -97.7,-60.3 -209.7,-91.6 -323.3,-91.6 -66.8,0 -134.1,10.8 -199.3,32.9 -12.3,4.2 -24.6,8.2 -36.9,12.3 -117.4,-106.2 -333.2,-168.7 -588.6,-168.7"
         style="fill:#ebc2ad;fill-opacity:1;fill-rule:nonzero;stroke:none"
         id="path216" />
      <path
         d="m 15231.7,34870.5 c -18.8,0 -37.5,-0.2 -56.3,-0.8 -277.4,-8.1 -544.5,-136 -732.7,-350.8 -638.8,-728.6 -2070,-2855.5 -1565.3,-6859.5 4.9,-39.4 -2.1,-79.4 -20.1,-114.7 -12.3,-24.3 -1228.2,-2463.5 -286.9,-4806.9 624.9,-1555.6 2050,-2731.9 4235.8,-3496.2 1711,-598.3 3568.5,-814.7 5371.6,-625.9 2304.7,241.5 3962.8,1059.6 4928.2,2431.5 1455.4,2068.1 830.4,4714.7 824,4741.2 -9.5,38.6 -7.1,79.1 6.8,116.3 1411.8,3780.7 507.9,6179.7 53.7,7035.6 -133.9,252.4 -364.3,438.2 -632.4,509.8 -1783,477.1 -3988.7,-1702.4 -4010.7,-1724.5 -56.3,-56.2 -140.7,-73.4 -214.4,-43.6 -913.5,370.1 -2084.2,519.8 -2095.9,521.3 -8.4,0.8 -1182.1,124.4 -2156.3,-25.8 -78.5,-12.2 -156.9,24.1 -198.6,91.7 -16.2,26.3 -1628.2,2601.3 -3450.5,2601.3 z m 6966.7,-16451.6 h 0.5 z m -1295.5,-265.3 c -1435.7,0 -2875.7,241.7 -4227.4,714.3 -2300.1,804.4 -3805.3,2057.9 -4473.8,3725.9 -937.4,2338.6 85.8,4677 275.6,5075 -503.2,4125.8 996.9,6345.9 1667.8,7111.1 260.4,297.2 631.7,474.1 1018.7,485.5 1866.3,54.6 3434.2,-2148.1 3784.6,-2678.5 994.7,129.8 2086.7,14.7 2134.5,9.5 51,-6.3 1140.4,-145.4 2078.4,-500.3 463,435.5 2497.5,2218.2 4299.1,1736.5 373.9,-100 694.6,-357.6 879.8,-706.8 477,-899 1426.5,-3404.4 -11.9,-7304 93.2,-431 551.3,-2942 -898.6,-5002.4 -1034.2,-1469.6 -2787.3,-2343.5 -5210.7,-2597.4 -436.4,-45.7 -876.1,-68.4 -1316.1,-68.4"
         style="fill:#000072;fill-opacity:1;fill-rule:nonzero;stroke:none"
         id="path218" />
    </g>
  </g>
</svg>
